<svg id="Layer_1" data-name="Layer 1" xmlns="http://www.w3.org/2000/svg" xmlns:xlink="http://www.w3.org/1999/xlink" width="1141" height="424" viewBox="0 0 1141 424">
  <defs>
    <style>
      .cls-1 {
        opacity: 0.05;
      }

      .cls-2 {
        isolation: isolate;
      }

      .cls-3 {
        fill: #f2f2f2;
      }

      .cls-4 {
        fill: #5a5a5a;
      }

      .cls-5 {
        fill: #fff;
      }

      .cls-6 {
        fill: #009ade;
      }

      .cls-7 {
        fill: #323e48;
      }

      .cls-8 {
        fill: #76777a;
      }

      .cls-9 {
        opacity: 0.2;
      }

      .cls-10 {
        opacity: 0.1;
      }

      .cls-11, .cls-30 {
        opacity: 0.25;
      }

      .cls-12 {
        fill: url(#linear-gradient);
      }

      .cls-13 {
        fill: url(#radial-gradient);
      }

      .cls-14 {
        fill: #f3f3f4;
      }

      .cls-15 {
        fill: #e2e2e2;
      }

      .cls-16 {
        fill-opacity: 0.2;
        fill: url(#linear-gradient-2);
      }

      .cls-17 {
        opacity: 0.05;
      }

      .cls-18 {
        fill: #cd2029;
      }

      .cls-19 {
        fill: #ef5555;
      }

      .cls-20 {
        fill: #adadad;
      }

      .cls-21 {
        fill: #eee;
      }

      .cls-22 {
        fill: #0075c9;
      }

      .cls-23 {
        fill: none;
      }

      .cls-24 {
        fill: #05ce7c;
      }

      .cls-25 {
        fill: #5eb3e4;
      }

      .cls-26 {
        fill: #2ad590;
      }

      .cls-27 {
        fill: #979797;
      }

      .cls-28 {
        fill: #5cdfaa;
      }

      .cls-29 {
        fill: #999;
      }

      .cls-30 {
        fill: url(#linear-gradient-3);
      }

      .cls-31 {
        fill: #00bc70;
      }
    </style>
    <linearGradient id="linear-gradient" x1="-36.9" y1="607.76" x2="-36.9" y2="607.78" gradientTransform="matrix(2421.88, 0, 0, -2421.88, 89611.44, 1472335.53)" gradientUnits="userSpaceOnUse">
      <stop offset="0.25" stop-color="#dcdbd9"/>
      <stop offset="1" stop-color="#fff"/>
    </linearGradient>
    <radialGradient id="radial-gradient" cx="-36.93" cy="607.8" r="0.01" gradientTransform="matrix(2240.23, 0, 0, -2240.23, 82981.55, 1361988.82)" gradientUnits="userSpaceOnUse">
      <stop offset="0" stop-color="#2abce1"/>
      <stop offset="0.11" stop-color="#26badf"/>
      <stop offset="1" stop-color="#4a70b5"/>
    </radialGradient>
    <linearGradient id="linear-gradient-2" x1="-36.93" y1="607.8" x2="-36.94" y2="607.79" gradientTransform="matrix(2240.23, 0, 0, -2240.23, 82988.18, 1361987.87)" gradientUnits="userSpaceOnUse">
      <stop offset="0" stop-opacity="0"/>
      <stop offset="1"/>
    </linearGradient>
    <linearGradient id="linear-gradient-3" x1="615.5" y1="159.49" x2="579.5" y2="224.82" gradientUnits="userSpaceOnUse">
      <stop offset="0" stop-color="#fff" stop-opacity="0"/>
      <stop offset="1"/>
    </linearGradient>
  </defs>
  <title>journey-graphic</title>
  <g>
    <path class="cls-1" d="M414.62,107.16,73.33,304.66l167.11,97.12L417.89,298.66h0l166-96.44Z"/>
    <g>
      <g class="cls-2">
        <polygon class="cls-3" points="397.37 105.89 397.34 118.11 390.79 118.11 390.83 105.88 397.37 105.89"/>
        <path class="cls-3" d="M397.7,118.2a.76.76,0,0,0-.36-.09l0-12.22a.77.77,0,0,1,.36.08h0l0,12.23Z"/>
        <path class="cls-3" d="M390.83,105.88l0,12.23a.71.71,0,0,0-.34.08l0-12.22A.85.85,0,0,1,390.83,105.88Z"/>
        <path class="cls-3" d="M390.41,118.21l0,0c0-1,0-2,0-3s0-2.11,0-3.17,0-2.11,0-3.17V106h0l0,0,0,12.22Z"/>
        <path class="cls-3" d="M390.33,118.27q0-6.1,0-12.22a.1.1,0,0,1,.06,0q0,6.1,0,12.23Z"/>
        <path class="cls-3" d="M390.33,118.27q0-6.1,0-12.22h0q0,6.11,0,12.22Z"/>
        <path class="cls-3" d="M397.84,118.4a.25.25,0,0,0-.14-.2l0-12.23a.23.23,0,0,1,.14.2C397.86,109.84,397.85,114.73,397.84,118.4Z"/>
        <polygon class="cls-4" points="397.87 106.17 397.84 118.4 397.84 118.4 397.87 106.17 397.87 106.17"/>
        <polygon class="cls-3" points="397.87 106.18 397.84 118.41 397.84 118.4 397.87 106.17 397.87 106.18"/>
        <path class="cls-3" d="M390.33,118.27a.24.24,0,0,0-.06.14l0-12.22a.17.17,0,0,1,.07-.14Q390.36,112.16,390.33,118.27Z"/>
        <path class="cls-4" d="M390.48,106l0,12.22c-.1.06-.16.13-.16.21l0-12.23A.28.28,0,0,1,390.48,106Z"/>
        <polygon class="cls-4" points="390.32 106.28 390.29 118.5 390.29 118.4 390.32 106.17 390.32 106.28"/>
        <path class="cls-4" d="M390.48,106a.28.28,0,0,0-.16.2v.11c-.06-.1,0-.21.11-.29Z"/>
        <path class="cls-4" d="M390.29,118.51a.16.16,0,0,1,0-.1l0-12.22a.16.16,0,0,0,0,.09C390.31,110,390.3,114.84,390.29,118.51Z"/>
        <path class="cls-4" d="M397.87,106.18l0,12.23c0,.15-.22.28-.5.28l0-12.23C397.65,106.46,397.87,106.34,397.87,106.18Z"/>
        <polygon class="cls-4" points="397.38 106.46 397.34 118.69 391.93 118.69 391.96 106.46 397.38 106.46"/>
        <polygon class="cls-3" points="398.15 110.03 398.12 122.26 391.93 118.69 391.96 106.46 398.15 110.03"/>
        <polygon class="cls-4" points="397.46 110.44 397.42 122.67 391.29 119.13 391.33 106.9 397.46 110.44"/>
        <polygon class="cls-4" points="391.96 106.46 391.93 118.69 391.29 118.69 391.32 106.46 391.96 106.46"/>
        <polygon class="cls-4" points="391.33 106.9 391.29 119.13 391.29 118.69 391.32 106.46 391.33 106.9"/>
        <polygon class="cls-4" points="390.35 109.85 390.31 122.08 390.29 118.5 390.32 106.28 390.35 109.85"/>
        <polygon class="cls-3" points="391.34 109.86 391.31 122.08 391.29 119.13 391.33 106.9 391.34 109.86"/>
        <path class="cls-4" d="M391.34,109.86l0,12.22c0,.16-.22.29-.5.29l0-12.23C391.12,110.14,391.35,110,391.34,109.86Z"/>
        <path class="cls-4" d="M390.85,110.14l0,12.23a.65.65,0,0,1-.35-.09.25.25,0,0,1-.15-.2l0-12.23a.27.27,0,0,0,.15.21A.72.72,0,0,0,390.85,110.14Z"/>
        <path class="cls-3" d="M398.3,110.24l0,12.23a.24.24,0,0,0-.14-.21l0-12.23A.25.25,0,0,1,398.3,110.24Z"/>
        <path class="cls-4" d="M398.3,110.24l0,12.23a.24.24,0,0,1-.14.2.78.78,0,0,1-.7,0l0-12.23a.78.78,0,0,0,.7,0A.26.26,0,0,0,398.3,110.24Z"/>
        <polygon class="cls-5" points="496.8 177.51 496.76 189.74 396.23 131.69 396.26 119.46 496.8 177.51"/>
        <polygon class="cls-3" points="413.89 109.22 413.85 121.45 396.23 131.69 396.26 119.46 413.89 109.22"/>
        <polygon class="cls-3" points="514.43 167.27 514.39 179.49 413.85 121.45 413.89 109.22 514.43 167.27"/>
        <polygon class="cls-5" points="514.43 167.27 514.39 179.49 496.76 189.74 496.8 177.51 514.43 167.27"/>
        <polygon class="cls-3" points="524.47 178.6 524.43 190.83 517.02 186.55 517.06 174.32 524.47 178.6"/>
        <polygon class="cls-4" points="523.42 178.81 523.39 191.03 516.68 187.16 516.71 174.93 523.42 178.81"/>
        <path class="cls-3" d="M517.06,174.32l0,12.23a.75.75,0,0,0-.35-.08l0-12.23A.82.82,0,0,1,517.06,174.32Z"/>
        <polygon class="cls-3" points="516.75 182.68 516.72 194.91 510.01 191.03 510.04 178.81 516.75 182.68"/>
        <polygon class="cls-4" points="516.4 183.29 516.37 195.52 508.95 191.24 508.99 179.01 516.4 183.29"/>
        <polygon class="cls-3" points="516.35 174.32 516.32 186.55 508.95 190.83 508.99 178.6 516.35 174.32"/>
        <polygon class="cls-4" points="516.71 174.94 510.04 178.81 516.68 182.64 516.71 174.94"/>
        <path class="cls-3" d="M516.68,182.64l0-8.4a.8.8,0,0,0-.36.08l0,8.12Z"/>
        <polygon class="cls-5" points="514.43 167.27 496.8 177.51 396.26 119.46 413.89 109.22 514.43 167.27"/>
        <polygon class="cls-3" points="510.04 178.81 516.71 174.93 523.42 178.81 516.75 182.68 510.04 178.81"/>
        <path class="cls-4" d="M524.62,178.81a.25.25,0,0,1-.14.2l-7.37,4.28a.66.66,0,0,1-.36.09.68.68,0,0,1-.35-.09L509,179a.24.24,0,0,1-.15-.2.25.25,0,0,1,.15-.21l7.36-4.28a.8.8,0,0,1,.36-.08.82.82,0,0,1,.35.08l7.41,4.28A.25.25,0,0,1,524.62,178.81Zm-7.87,3.87,6.67-3.87-6.71-3.88L510,178.81l6.71,3.87"/>
        <polygon class="cls-4" points="524.48 179.01 524.44 191.24 517.08 195.52 517.11 183.29 524.48 179.01"/>
        <path class="cls-3" d="M524.62,178.82l0,12.23v0l0-12.22Z"/>
        <path class="cls-4" d="M524.62,178.82l0,12.23a.23.23,0,0,1-.14.19l0-12.23A.23.23,0,0,0,524.62,178.82Z"/>
        <path class="cls-4" d="M509,179l0,12.23a.25.25,0,0,1-.14-.2l0-12.23A.24.24,0,0,0,509,179Z"/>
        <path class="cls-4" d="M517.11,183.29l0,12.23a.69.69,0,0,1-.36.09.65.65,0,0,1-.35-.09l0-12.23a.68.68,0,0,0,.35.09A.66.66,0,0,0,517.11,183.29Z"/>
        <path class="cls-3" d="M542.67,202.2a.73.73,0,0,0-.42.59l0-12.23a.71.71,0,0,1,.42-.58h0c0,1.24,0,2.48,0,3.72,0,2.83,0,5.67,0,8.5l0-12.22a2.2,2.2,0,0,1,2,0l0,12.23h0A2.24,2.24,0,0,0,542.67,202.2Z"/>
        <path class="cls-3" d="M544.7,202.21l0-12.23a.71.71,0,0,1,.43.59l0,12.23A.71.71,0,0,0,544.7,202.21Z"/>
        <path class="cls-4" d="M545.16,190.57l0,12.23a.71.71,0,0,1-.42.58,2.2,2.2,0,0,1-2,0,.72.72,0,0,1-.42-.59l0-12.23a.73.73,0,0,0,.43.6,2.24,2.24,0,0,0,2,0A.71.71,0,0,0,545.16,190.57Z"/>
        <path class="cls-4" d="M544.73,190c.56.32.57.85,0,1.17a2.24,2.24,0,0,1-2,0c-.57-.33-.57-.86,0-1.18A2.2,2.2,0,0,1,544.73,190Z"/>
        <path class="cls-3" d="M539.36,204.12q0-6.1,0-12.22a2.21,2.21,0,0,1,2,0,.67.67,0,0,1,.42.59l0,12.22a.73.73,0,0,0-.42-.59A2.29,2.29,0,0,0,539.36,204.12Z"/>
        <path class="cls-3" d="M539.36,204.12a.73.73,0,0,0-.41.58l0-12.22a.71.71,0,0,1,.42-.58h0q0,6.1,0,12.22Z"/>
        <path class="cls-4" d="M541.85,192.49l0,12.22a.71.71,0,0,1-.42.59,2.25,2.25,0,0,1-2,0,.73.73,0,0,1-.43-.59l0-12.23a.71.71,0,0,0,.43.59,2.18,2.18,0,0,0,2,0A.71.71,0,0,0,541.85,192.49Z"/>
        <path class="cls-3" d="M536.06,206a.71.71,0,0,0-.41.58l0-12.23a.71.71,0,0,1,.42-.58q0,6.12,0,12.23,0-6.12,0-12.23a2.29,2.29,0,0,1,2,0,.73.73,0,0,1,.42.59l0,12.23a.72.72,0,0,0-.42-.59A2.26,2.26,0,0,0,536.06,206Z"/>
        <path class="cls-4" d="M538.56,194.4l0,12.23a.73.73,0,0,1-.42.59,2.25,2.25,0,0,1-2,0,.73.73,0,0,1-.43-.6l0-12.23a.75.75,0,0,0,.43.6,2.27,2.27,0,0,0,2,0A.72.72,0,0,0,538.56,194.4Z"/>
        <path class="cls-4" d="M538.14,193.81a.63.63,0,0,1,0,1.18,2.27,2.27,0,0,1-2,0c-.57-.33-.57-.85,0-1.18A2.29,2.29,0,0,1,538.14,193.81Z"/>
        <path class="cls-3" d="M403.26,86.63l-38.77,22.53,168,97,38.77-22.53Zm-12.41,23.51a.72.72,0,0,1-.35-.08.32.32,0,0,1-.16-.21l0-3.57c-.05-.1,0-.21.12-.29l0,0a.85.85,0,0,1,.35-.09h6.54a.77.77,0,0,1,.36.08.25.25,0,0,1,.14.2c0,.16-.21.29-.49.29H392l6.19,3.57a.22.22,0,0,1,0,.41.78.78,0,0,1-.7,0l-6.13-3.54v3c0,.15-.22.28-.49.28m5.41,9.32,17.63-10.24,100.54,58.05L496.8,177.51l-100.54-58M524.48,179l-7.37,4.28a.66.66,0,0,1-.36.09.68.68,0,0,1-.35-.09L509,179a.24.24,0,0,1-.15-.2.25.25,0,0,1,.15-.21l7.36-4.28a.8.8,0,0,1,.36-.08.82.82,0,0,1,.35.08l7.41,4.28a.25.25,0,0,1,.15.21.25.25,0,0,1-.14.2m13.66,16a2.27,2.27,0,0,1-2,0c-.57-.33-.57-.85,0-1.18a2.29,2.29,0,0,1,2,0,.63.63,0,0,1,0,1.18m3.29-1.92a2.18,2.18,0,0,1-2,0c-.57-.33-.57-.85,0-1.17a2.21,2.21,0,0,1,2,0,.62.62,0,0,1,0,1.17m3.31-1.92a2.24,2.24,0,0,1-2,0c-.57-.33-.57-.86,0-1.18a2.2,2.2,0,0,1,2,0c.56.32.57.85,0,1.17"/>
        <path class="cls-4" d="M397.73,106a.25.25,0,0,1,.14.2c0,.16-.21.29-.49.29h-6.05v3.4c0,.15-.22.28-.49.28a.72.72,0,0,1-.35-.08.27.27,0,0,1-.15-.21l0-3.57v-.11a.28.28,0,0,1,.16-.2.85.85,0,0,1,.35-.09h6.54A.77.77,0,0,1,397.73,106Z"/>
        <path class="cls-4" d="M398.15,110a.22.22,0,0,1,0,.41.78.78,0,0,1-.7,0l-6.13-3.54v-.44H392Z"/>
        <path class="cls-4" d="M541.43,191.9a.62.62,0,0,1,0,1.17,2.18,2.18,0,0,1-2,0c-.57-.33-.57-.85,0-1.17A2.21,2.21,0,0,1,541.43,191.9Z"/>
        <polygon class="cls-3" points="571.25 183.62 571.21 195.84 532.44 218.38 532.48 206.15 571.25 183.62"/>
        <polygon class="cls-3" points="532.48 206.15 532.44 218.38 364.46 121.39 364.49 109.16 532.48 206.15"/>
        <polygon class="cls-6" points="532.48 206.15 418.33 272.49 250.34 175.5 364.49 109.16 532.48 206.15"/>
        <polygon class="cls-6" points="532.48 206.15 532.44 218.38 418.29 284.71 418.33 272.49 532.48 206.15"/>
        <polygon class="cls-6" points="418.33 272.49 418.29 284.71 250.31 187.73 250.34 175.5 418.33 272.49"/>
      </g>
      <g class="cls-2">
        <polygon class="cls-3" points="292.15 212.39 292.11 224.62 249.17 199.83 249.2 187.6 292.15 212.39"/>
        <polygon class="cls-7" points="249.48 237.19 249.45 249.41 206.51 224.62 206.54 212.39 249.48 237.19"/>
        <polygon class="cls-3" points="249.2 187.6 249.17 199.83 206.51 224.62 206.54 212.39 249.2 187.6"/>
        <polygon class="cls-7" points="292.15 212.39 292.11 224.62 249.45 249.41 249.48 237.19 292.15 212.39"/>
        <polygon class="cls-3" points="344.79 242.79 344.75 255.01 301.81 230.22 301.85 217.99 344.79 242.79"/>
        <polygon class="cls-7" points="302.13 267.58 302.09 279.81 259.15 255.01 259.18 242.79 302.13 267.58"/>
        <polygon class="cls-3" points="301.85 217.99 301.81 230.22 259.15 255.01 259.18 242.79 301.85 217.99"/>
        <polygon class="cls-3" points="238.47 243.59 238.44 255.81 195.49 231.02 195.53 218.79 238.47 243.59"/>
        <polygon class="cls-7" points="195.81 268.38 195.77 280.61 152.83 255.81 152.87 243.59 195.81 268.38"/>
        <polygon class="cls-3" points="195.53 218.79 195.49 231.02 152.83 255.81 152.87 243.59 195.53 218.79"/>
        <polygon class="cls-3" points="284.39 338.59 284.36 350.81 136.62 265.52 136.65 253.29 284.39 338.59"/>
        <polygon class="cls-8" points="278.89 341.79 278.85 354.01 131.11 268.72 131.15 256.49 278.89 341.79"/>
        <polygon class="cls-3" points="136.65 253.29 136.62 265.52 131.11 268.72 131.15 256.49 136.65 253.29"/>
        <polygon class="cls-3" points="272.46 345.52 272.43 357.75 124.69 272.45 124.72 260.22 272.46 345.52"/>
        <polygon class="cls-8" points="266.96 348.72 266.92 360.95 119.18 275.65 119.22 263.42 266.96 348.72"/>
        <polygon class="cls-3" points="124.72 260.22 124.69 272.45 119.18 275.65 119.22 263.42 124.72 260.22"/>
        <polygon class="cls-7" points="344.79 242.79 302.13 267.58 259.18 242.79 301.85 217.99 344.79 242.79"/>
        <polygon class="cls-7" points="344.79 242.79 344.75 255.01 302.09 279.81 302.13 267.58 344.79 242.79"/>
        <polygon class="cls-7" points="238.47 243.59 195.81 268.38 152.87 243.59 195.53 218.79 238.47 243.59"/>
        <polygon class="cls-7" points="238.47 243.59 238.44 255.81 195.77 280.61 195.81 268.38 238.47 243.59"/>
        <polygon class="cls-3" points="397.43 273.18 397.4 285.41 354.45 260.61 354.49 248.38 397.43 273.18"/>
        <polygon class="cls-7" points="354.77 297.97 354.73 310.2 311.79 285.41 311.82 273.18 354.77 297.97"/>
        <polygon class="cls-3" points="354.49 248.38 354.45 260.61 311.79 285.41 311.82 273.18 354.49 248.38"/>
        <polygon class="cls-3" points="291.11 273.98 291.08 286.21 248.14 261.41 248.17 249.19 291.11 273.98"/>
        <polygon class="cls-7" points="248.45 298.77 248.41 311 205.47 286.21 205.51 273.98 248.45 298.77"/>
        <polygon class="cls-3" points="248.17 249.19 248.14 261.41 205.47 286.21 205.51 273.98 248.17 249.19"/>
        <polygon class="cls-3" points="247.81 345.11 247.78 357.33 125.49 286.73 125.53 274.5 247.81 345.11"/>
        <polygon class="cls-8" points="242.31 348.3 242.27 360.53 119.99 289.93 120.02 277.7 242.31 348.3"/>
        <polygon class="cls-3" points="125.53 274.5 125.49 286.73 119.99 289.93 120.02 277.7 125.53 274.5"/>
        <polygon class="cls-7" points="397.43 273.18 354.77 297.97 311.82 273.18 354.49 248.38 397.43 273.18"/>
        <polygon class="cls-7" points="397.43 273.18 397.4 285.41 354.73 310.2 354.77 297.97 397.43 273.18"/>
        <polygon class="cls-7" points="291.11 273.98 248.45 298.77 205.51 273.98 248.17 249.19 291.11 273.98"/>
        <polygon class="cls-7" points="291.11 273.98 291.08 286.21 248.41 311 248.45 298.77 291.11 273.98"/>
        <polygon class="cls-3" points="343.75 304.37 343.72 316.6 300.78 291.81 300.81 279.58 343.75 304.37"/>
        <polygon class="cls-7" points="301.09 329.17 301.06 341.39 258.11 316.6 258.15 304.37 301.09 329.17"/>
        <polygon class="cls-3" points="300.81 279.58 300.78 291.81 258.11 316.6 258.15 304.37 300.81 279.58"/>
        <polygon class="cls-7" points="343.75 304.37 301.09 329.17 258.15 304.37 300.81 279.58 343.75 304.37"/>
        <polygon class="cls-7" points="343.75 304.37 343.72 316.6 301.06 341.39 301.09 329.17 343.75 304.37"/>
        <polygon class="cls-8" points="284.39 338.59 284.36 350.81 278.85 354.01 278.89 341.79 284.39 338.59"/>
        <polygon class="cls-8" points="247.81 345.11 247.78 357.33 242.27 360.53 242.31 348.3 247.81 345.11"/>
        <polygon class="cls-8" points="247.81 345.11 242.31 348.3 120.02 277.7 125.53 274.5 247.81 345.11"/>
        <polygon class="cls-8" points="272.46 345.52 272.43 357.75 266.92 360.95 266.96 348.72 272.46 345.52"/>
        <path class="cls-3" d="M250.34,175.5l168,97L241.83,375.06l-168-97Zm50.75,153.67,42.66-24.8-42.94-24.79-42.66,24.79,42.94,24.8M301.85,218l-42.67,24.8,42.95,24.79,42.66-24.79L301.85,218m-53.68,31.2L205.51,274l42.94,24.79L291.11,274l-42.94-24.79M354.77,298l42.66-24.79-42.94-24.79-42.67,24.79L354.77,298M195.53,218.79l-42.67,24.8,42.95,24.79,42.66-24.79-42.94-24.8M249.2,187.6l-42.66,24.79,42.94,24.8,42.67-24.8L249.2,187.6M267,348.72l5.5-3.2-147.74-85.3-5.5,3.2L267,348.72m11.93-6.93,5.5-3.2-147.74-85.3-5.5,3.2,147.74,85.3m-36.58,6.51,5.5-3.2L125.53,274.5,120,277.7l122.29,70.6"/>
        <polygon class="cls-7" points="292.15 212.39 249.48 237.19 206.54 212.39 249.21 187.6 292.15 212.39"/>
        <polygon class="cls-8" points="284.39 338.59 278.89 341.79 131.15 256.49 136.65 253.29 284.39 338.59"/>
        <polygon class="cls-8" points="272.46 345.52 266.96 348.72 119.22 263.42 124.72 260.22 272.46 345.52"/>
        <polygon class="cls-3" points="241.83 375.06 241.79 387.28 73.81 290.3 73.84 278.07 241.83 375.06"/>
        <polygon class="cls-3" points="418.33 272.49 418.29 284.71 241.79 387.28 241.83 375.06 418.33 272.49"/>
      </g>
    </g>
    <path class="cls-1" d="M619.33,202.22l165.95,96.44h0L962.73,401.78l167.11-97.12L788.56,107.16Z"/>
    <g>
      <g>
        <g class="cls-2">
          <path class="cls-6" d="M798.07,86.63l155,89.49-166.9,97-155-89.49Z"/>
          <polygon class="cls-6" points="786.17 273.11 786.14 285.34 631.14 195.85 631.17 183.62 786.17 273.11"/>
          <polygon class="cls-6" points="953.07 176.12 953.03 188.35 786.14 285.34 786.17 273.11 953.07 176.12"/>
        </g>
        <g class="cls-2">
          <polygon class="cls-7" points="953.05 238.66 953.02 250.89 910.11 226.12 910.15 213.89 953.05 238.66"/>
          <polygon class="cls-3" points="950.74 190.3 950.7 202.53 910.11 226.12 910.15 213.89 950.74 190.3"/>
          <polygon class="cls-3" points="993.64 215.07 993.61 227.3 950.7 202.53 950.74 190.3 993.64 215.07"/>
          <polygon class="cls-7" points="993.64 215.07 993.61 227.3 953.02 250.89 953.05 238.66 993.64 215.07"/>
          <polygon class="cls-7" points="993.64 215.07 953.05 238.66 910.15 213.89 950.74 190.3 993.64 215.07"/>
          <polygon class="cls-7" points="903.3 267.57 903.27 279.8 860.36 255.03 860.4 242.8 903.3 267.57"/>
          <polygon class="cls-3" points="900.99 219.21 900.95 231.44 860.36 255.03 860.4 242.8 900.99 219.21"/>
          <polygon class="cls-3" points="943.89 243.98 943.86 256.21 900.95 231.44 900.99 219.21 943.89 243.98"/>
          <polygon class="cls-7" points="1007.33 269.65 1007.29 281.88 964.39 257.11 964.42 244.88 1007.33 269.65"/>
          <polygon class="cls-3" points="1005.01 221.29 1004.98 233.52 964.39 257.11 964.42 244.88 1005.01 221.29"/>
          <polygon class="cls-3" points="1047.91 246.06 1047.88 258.29 1004.98 233.52 1005.01 221.29 1047.91 246.06"/>
          <polygon class="cls-3" points="1070 258.81 1069.96 271.04 1064.43 267.84 1064.46 255.62 1070 258.81"/>
          <polygon class="cls-3" points="1082 265.74 1081.96 277.97 1076.42 274.77 1076.45 262.54 1082 265.74"/>
          <polygon class="cls-7" points="943.89 243.98 943.86 256.21 903.27 279.8 903.3 267.57 943.89 243.98"/>
          <polygon class="cls-7" points="943.89 243.98 903.3 267.57 860.4 242.8 900.99 219.21 943.89 243.98"/>
          <polygon class="cls-7" points="1047.92 246.06 1047.88 258.29 1007.29 281.88 1007.33 269.65 1047.92 246.06"/>
          <polygon class="cls-7" points="1047.92 246.06 1007.33 269.65 964.42 244.88 1005.01 221.29 1047.92 246.06"/>
          <polygon class="cls-7" points="853.55 296.48 853.52 308.71 810.61 283.94 810.65 271.71 853.55 296.48"/>
          <polygon class="cls-3" points="851.23 248.13 851.2 260.35 810.61 283.94 810.65 271.71 851.23 248.13"/>
          <polygon class="cls-3" points="894.14 272.9 894.1 285.13 851.2 260.35 851.23 248.13 894.14 272.9"/>
          <polygon class="cls-7" points="957.58 298.56 957.54 310.79 914.64 286.02 914.67 273.79 957.58 298.56"/>
          <polygon class="cls-3" points="955.26 250.2 955.23 262.43 914.64 286.02 914.67 273.79 955.26 250.2"/>
          <polygon class="cls-3" points="998.17 274.97 998.13 287.2 955.23 262.43 955.26 250.2 998.17 274.97"/>
          <polygon class="cls-3" points="1064.46 255.62 1064.43 267.84 924.8 348.99 924.83 336.76 1064.46 255.62"/>
          <polygon class="cls-8" points="1070 258.81 1069.97 271.04 930.33 352.19 930.37 339.96 1070 258.81"/>
          <polygon class="cls-3" points="1076.45 262.54 1076.42 274.77 936.79 355.91 936.82 343.68 1076.45 262.54"/>
          <polygon class="cls-8" points="1082 265.74 1081.96 277.97 942.33 359.11 942.37 346.88 1082 265.74"/>
          <polygon class="cls-3" points="1069.93 286.64 1069.89 298.87 1064.36 295.68 1064.39 283.45 1069.93 286.64"/>
          <polygon class="cls-7" points="894.14 272.9 853.55 296.48 810.65 271.71 851.23 248.13 894.14 272.9"/>
          <polygon class="cls-7" points="894.14 272.9 894.1 285.13 853.52 308.71 853.55 296.48 894.14 272.9"/>
          <polygon class="cls-7" points="998.17 274.97 998.13 287.2 957.54 310.79 957.58 298.56 998.17 274.97"/>
          <polygon class="cls-7" points="907.83 327.47 907.79 339.7 864.89 314.93 864.92 302.7 907.83 327.47"/>
          <polygon class="cls-3" points="905.5 279.12 905.47 291.34 864.89 314.93 864.92 302.7 905.5 279.12"/>
          <polygon class="cls-3" points="948.41 303.89 948.38 316.12 905.47 291.34 905.5 279.12 948.41 303.89"/>
          <polygon class="cls-7" points="948.41 303.89 948.38 316.12 907.79 339.7 907.83 327.47 948.41 303.89"/>
          <polygon class="cls-8" points="930.37 339.96 930.33 352.19 924.8 348.99 924.83 336.76 930.37 339.96"/>
          <polygon class="cls-8" points="942.37 346.88 942.33 359.11 936.79 355.91 936.82 343.68 942.37 346.88"/>
          <polygon class="cls-8" points="1082 265.74 942.37 346.88 936.82 343.68 1076.45 262.54 1082 265.74"/>
          <polygon class="cls-3" points="1064.39 283.45 1064.36 295.68 948.78 362.84 948.82 350.61 1064.39 283.45"/>
          <polygon class="cls-8" points="954.36 353.81 954.32 366.03 948.78 362.84 948.82 350.61 954.36 353.81"/>
          <path class="cls-3" d="M953.07,176.12l177.49,102.47-166.9,97L786.17,273.11ZM903.3,267.57,943.89,244,901,219.21,860.4,242.8l42.9,24.77m104,2.08,40.59-23.59L1005,221.29l-40.59,23.59,42.91,24.77m-49.75,28.91L998.17,275,955.26,250.2l-40.59,23.59,42.91,24.77m-4.53-59.9,40.59-23.59-42.9-24.77-40.59,23.59,42.9,24.77m-45.22,88.81,40.58-23.58-42.9-24.77L864.92,302.7l42.91,24.77m-54.28-31,40.59-23.58-42.91-24.77-40.58,23.58,42.9,24.77m88.81,50.4L1082,265.74l-5.55-3.2L936.82,343.68l5.54,3.2m-12-6.92L1070,258.81l-5.54-3.19L924.83,336.76l5.54,3.2m24,13.85,115.57-67.17-5.54-3.19L948.82,350.61l5.54,3.2"/>
          <polygon class="cls-7" points="998.17 274.97 957.58 298.56 914.67 273.79 955.26 250.2 998.17 274.97"/>
          <polygon class="cls-7" points="948.41 303.89 907.83 327.47 864.92 302.7 905.51 279.12 948.41 303.89"/>
          <polygon class="cls-8" points="1070 258.81 930.37 339.96 924.83 336.76 1064.46 255.62 1070 258.81"/>
          <polygon class="cls-8" points="1069.93 286.64 954.36 353.81 948.82 350.61 1064.39 283.45 1069.93 286.64"/>
          <polygon class="cls-3" points="1130.56 278.59 1130.52 290.82 963.63 387.81 963.66 375.58 1130.56 278.59"/>
          <polygon class="cls-3" points="963.66 375.58 963.63 387.81 786.14 285.34 786.17 273.11 963.66 375.58"/>
        </g>
      </g>
      <g>
        <polygon class="cls-5" points="665.41 180.28 654.21 186.79 654.91 187.19 666.11 180.69 665.41 180.28"/>
        <polygon class="cls-5" points="668.41 182.01 657.2 188.52 657.89 188.92 669.1 182.41 668.41 182.01"/>
        <polygon class="cls-5" points="671.39 183.74 660.19 190.25 660.88 190.65 672.08 184.13 671.39 183.74"/>
      </g>
    </g>
    <g class="cls-9">
      <polygon points="1130.56 278.59 1130.52 290.82 963.63 387.81 963.66 375.58 1130.56 278.59"/>
    </g>
    <g class="cls-9">
      <polygon points="532.48 206.15 418.33 272.49 418.29 284.71 532.44 218.38 571.21 195.84 571.25 183.62 532.48 206.15"/>
      <polygon points="241.83 375.06 241.79 387.28 418.29 284.71 418.33 272.49 241.83 375.06"/>
    </g>
    <g class="cls-10">
      <polygon points="241.83 375.06 241.79 387.28 73.81 290.3 73.84 278.07 241.83 375.06"/>
    </g>
    <g class="cls-10">
      <polygon points="631.17 183.62 631.14 195.85 786.14 285.34 786.17 273.11 631.17 183.62"/>
      <polygon points="786.17 273.11 786.14 285.34 963.63 387.81 963.66 375.58 786.17 273.11"/>
    </g>
    <path class="cls-11" d="M631.17,183.62l0,12.23,33.51,19.34a61.48,61.48,0,0,0-5.9-47.6l-27.58,16Z"/>
    <path class="cls-11" d="M571.51,183.62l0,12.23L538,215.19a61.48,61.48,0,0,1,5.9-47.6l27.58,16Z"/>
    <g>
      <g>
        <path class="cls-5" d="M276,364.49v35.27a15.56,15.56,0,0,1-15.56,15.56H225.12a15.56,15.56,0,0,1-15.56-15.56V364.49a15.56,15.56,0,0,1,15.56-15.56H260.4A15.56,15.56,0,0,1,276,364.49Z"/>
        <path class="cls-3" d="M260.4,415.82H225.12a16.08,16.08,0,0,1-16.06-16.06V364.49a16.08,16.08,0,0,1,16.06-16.06H260.4a16.08,16.08,0,0,1,16.06,16.06v35.27A16.08,16.08,0,0,1,260.4,415.82Zm-35.28-66.39a15.08,15.08,0,0,0-15.06,15.06v35.27a15.08,15.08,0,0,0,15.06,15.06H260.4a15.08,15.08,0,0,0,15.06-15.06V364.49a15.08,15.08,0,0,0-15.06-15.06Z"/>
      </g>
      <g>
        <circle class="cls-12" cx="242.76" cy="382.12" r="23.67"/>
        <circle class="cls-13" cx="242.76" cy="382.12" r="21.9"/>
        <g>
          <path class="cls-14" d="M242.8,365.56a.28.28,0,0,1-.28-.26v-3.87a.28.28,0,0,1,.56,0v3.87a.29.29,0,0,1-.28.26Z"/>
          <path class="cls-5" d="M242.8,365.57a.29.29,0,0,1-.3-.27v-3.87a.29.29,0,0,1,.3-.28.28.28,0,0,1,.29.28v3.87A.29.29,0,0,1,242.8,365.57Zm0-4.38a.26.26,0,0,0-.26.24v3.87a.25.25,0,0,0,.26.24.26.26,0,0,0,.26-.24v-3.87A.28.28,0,0,0,242.8,361.19Z"/>
          <path class="cls-14" d="M244.65,363.48a.27.27,0,0,1-.26-.27l.13-1.72a.27.27,0,0,1,.29-.24.27.27,0,0,1,.26.27l-.13,1.72a.26.26,0,0,1-.29.24Z"/>
          <path class="cls-5" d="M244.65,363.5a.3.3,0,0,1-.28-.29l.13-1.72a.29.29,0,0,1,.31-.26.3.3,0,0,1,.28.29l-.13,1.72A.28.28,0,0,1,244.65,363.5Zm.16-2.24a.25.25,0,0,0-.25.23l-.13,1.72a.26.26,0,0,0,.24.26.25.25,0,0,0,.26-.23l.12-1.72a.28.28,0,0,0-.24-.26Z"/>
          <path class="cls-14" d="M246,365.89a.29.29,0,0,1-.23-.32l.76-3.79a.26.26,0,0,1,.32-.2.29.29,0,0,1,.22.31l-.76,3.79a.28.28,0,0,1-.32.21Z"/>
          <path class="cls-5" d="M246,365.91a.32.32,0,0,1-.25-.34l.76-3.79a.3.3,0,0,1,.35-.22.3.3,0,0,1,.24.33l-.75,3.79A.32.32,0,0,1,246,365.91Zm.86-4.31a.25.25,0,0,0-.29.18l-.76,3.79a.26.26,0,0,0,.5.11l.76-3.79A.26.26,0,0,0,246.9,361.6Z"/>
          <path class="cls-14" d="M248.25,364.22a.27.27,0,0,1-.2-.33h0l.46-1.66a.27.27,0,0,1,.34-.19.28.28,0,0,1,.2.33l-.46,1.67a.27.27,0,0,1-.34.18Z"/>
          <path class="cls-5" d="M248.25,364.24a.28.28,0,0,1-.2-.35l.46-1.66a.31.31,0,0,1,.35-.21.29.29,0,0,1,.21.35l-.46,1.67a.29.29,0,0,1-.36.2Zm.61-2.16a.25.25,0,0,0-.31.17l-.46,1.66a.23.23,0,0,0,.18.3.27.27,0,0,0,.32-.17l.46-1.67a.27.27,0,0,0-.19-.29Z"/>
          <path class="cls-14" d="M249.16,366.83a.26.26,0,0,1-.15-.35l1.48-3.57a.27.27,0,0,1,.5.22l-1.48,3.57a.25.25,0,0,1-.35.13Z"/>
          <path class="cls-5" d="M249.16,366.85a.29.29,0,0,1-.17-.37l1.48-3.57a.3.3,0,0,1,.39-.15.29.29,0,0,1,.17.37l-1.48,3.57A.3.3,0,0,1,249.16,366.85Zm1.68-4.05a.25.25,0,0,0-.33.13L249,366.5a.24.24,0,0,0,.15.31.24.24,0,0,0,.33-.13l1.48-3.57a.26.26,0,0,0-.15-.31Z"/>
          <path class="cls-14" d="M251.66,365.65a.27.27,0,0,1-.13-.35l.77-1.54a.28.28,0,0,1,.37-.11.27.27,0,0,1,.13.35l-.77,1.54a.28.28,0,0,1-.37.11Z"/>
          <path class="cls-5" d="M251.66,365.67a.28.28,0,0,1-.13-.39l.77-1.54a.29.29,0,0,1,.39-.13.28.28,0,0,1,.13.39l-.77,1.54a.3.3,0,0,1-.39.13Zm1-2a.25.25,0,0,0-.33.11l-.78,1.54a.27.27,0,0,0,.12.33.25.25,0,0,0,.33-.11l.77-1.54A.26.26,0,0,0,252.67,363.65Z"/>
          <path class="cls-14" d="M252,368.38A.26.26,0,0,1,252,368l2.15-3.19a.27.27,0,0,1,.37-.08.26.26,0,0,1,.07.37l-2.14,3.2A.24.24,0,0,1,252,368.38Z"/>
          <path class="cls-5" d="M252,368.4a.32.32,0,0,1-.1-.4l2.15-3.2a.3.3,0,0,1,.41-.08.33.33,0,0,1,.09.41l-2.15,3.2A.28.28,0,0,1,252,368.4Zm2.44-3.64a.25.25,0,0,0-.35.06L252,368a.25.25,0,0,0,.08.34.26.26,0,0,0,.35-.06l2.14-3.18a.26.26,0,0,0-.07-.35Z"/>
          <path class="cls-14" d="M254.73,367.7a.27.27,0,0,1-.06-.37l1.07-1.35a.27.27,0,0,1,.37,0,.27.27,0,0,1,.06.37l-1.07,1.35a.27.27,0,0,1-.37,0Z"/>
          <path class="cls-5" d="M254.71,367.72a.3.3,0,0,1-.06-.41l1.08-1.35a.26.26,0,0,1,.4,0,.29.29,0,0,1,.06.4l-1.08,1.35A.27.27,0,0,1,254.71,367.72Zm1.38-1.76a.24.24,0,0,0-.35,0l-1.07,1.35a.27.27,0,0,0,.06.35.24.24,0,0,0,.35,0l1.07-1.35a.26.26,0,0,0,0-.35Z"/>
          <path class="cls-14" d="M254.54,370.47a.25.25,0,0,1,0-.37l2.74-2.71a.26.26,0,0,1,.37,0,.27.27,0,0,1,0,.37l-2.72,2.71A.26.26,0,0,1,254.54,370.47Z"/>
          <path class="cls-5" d="M254.52,370.49a.28.28,0,0,1,0-.4l2.74-2.72a.3.3,0,0,1,.41,0,.28.28,0,0,1,0,.4l-2.74,2.72a.3.3,0,0,1-.41,0Zm3.13-3.1a.24.24,0,0,0-.35,0l-2.74,2.71a.27.27,0,0,0,0,.36.26.26,0,0,0,.35,0l2.74-2.72a.26.26,0,0,0,0-.35Z"/>
          <path class="cls-14" d="M257.32,370.33a.26.26,0,0,1,0-.37l1.32-1.11a.26.26,0,0,1,.37,0,.27.27,0,0,1,0,.37l-1.31,1.11A.26.26,0,0,1,257.32,370.33Z"/>
          <path class="cls-5" d="M257.3,370.34a.27.27,0,0,1,0-.4l1.31-1.11a.29.29,0,0,1,.39.44l-1.32,1.11a.27.27,0,0,1-.4,0Zm1.7-1.46a.25.25,0,0,0-.35,0L257.33,370a.26.26,0,0,0,.34.38l1.31-1.1A.25.25,0,0,0,259,368.88Z"/>
          <path class="cls-14" d="M256.58,373a.24.24,0,0,1,.07-.37l3.22-2.15a.29.29,0,0,1,.37.08.25.25,0,0,1-.08.37L257,373.06A.28.28,0,0,1,256.58,373Z"/>
          <path class="cls-5" d="M256.56,373a.29.29,0,0,1,.07-.41l3.22-2.14a.28.28,0,0,1,.41.09.3.3,0,0,1-.08.41L257,373.08a.28.28,0,0,1-.4-.09Zm3.66-2.42a.25.25,0,0,0-.33-.08l-3.22,2.15a.25.25,0,0,0,.28.42l3.21-2.14a.27.27,0,0,0,.06-.35Z"/>
          <path class="cls-14" d="M259.33,373.38a.27.27,0,0,1,.09-.37l1.5-.85a.27.27,0,0,1,.37.11.26.26,0,0,1-.09.37l-1.5.85a.28.28,0,0,1-.37-.11Z"/>
          <path class="cls-5" d="M259.31,373.4a.29.29,0,0,1,.1-.39l1.49-.85a.29.29,0,0,1,.39.11.28.28,0,0,1-.09.39l-1.5.85a.3.3,0,0,1-.39-.11Zm2-1.11a.23.23,0,0,0-.33-.1l-1.5.85a.27.27,0,0,0-.09.34.23.23,0,0,0,.33.09l1.5-.85A.25.25,0,0,0,261.27,372.29Z"/>
          <path class="cls-14" d="M258.09,375.84a.26.26,0,0,1,.15-.35l3.57-1.48a.27.27,0,0,1,.35.14.26.26,0,0,1-.15.36L258.44,376A.27.27,0,0,1,258.09,375.84Z"/>
          <path class="cls-5" d="M258.07,375.86a.31.31,0,0,1,.15-.39l3.57-1.48a.29.29,0,0,1,.37.16.3.3,0,0,1-.15.39L258.44,376a.29.29,0,0,1-.37-.16Zm4.05-1.69a.26.26,0,0,0-.31-.15l-3.57,1.48a.26.26,0,0,0-.13.34.28.28,0,0,0,.32.15l3.56-1.48A.26.26,0,0,0,262.12,374.17Z"/>
          <path class="cls-14" d="M260.7,376.76a.26.26,0,0,1,.17-.35l1.62-.54a.28.28,0,0,1,.34.17.27.27,0,0,1-.17.35l-1.63.54a.26.26,0,0,1-.33-.17Z"/>
          <path class="cls-5" d="M260.68,376.78a.29.29,0,0,1,.19-.37l1.62-.54a.3.3,0,0,1,.37.19.28.28,0,0,1-.18.37l-1.63.54A.32.32,0,0,1,260.68,376.78Zm2.15-.7a.26.26,0,0,0-.32-.17l-1.63.54a.24.24,0,0,0-.14.31.25.25,0,0,0,.31.17l1.63-.54a.25.25,0,0,0,.15-.31Z"/>
          <path class="cls-14" d="M259,379a.24.24,0,0,1,.2-.31l3.79-.74a.26.26,0,0,1,.31.22.24.24,0,0,1-.2.31l-3.79.74A.26.26,0,0,1,259,379Z"/>
          <path class="cls-5" d="M259,379a.3.3,0,0,1,.22-.35l3.79-.74a.28.28,0,0,1,.33.24.29.29,0,0,1-.22.35l-3.79.74A.28.28,0,0,1,259,379Zm4.31-.83a.25.25,0,0,0-.28-.2l-3.79.74a.24.24,0,0,0-.19.29.26.26,0,0,0,.28.21l3.79-.74a.26.26,0,0,0,.19-.3Z"/>
          <path class="cls-14" d="M261.4,380.39a.26.26,0,0,1,.22-.3l1.71-.2a.27.27,0,0,1,.29.24.24.24,0,0,1-.22.29l-1.7.21a.29.29,0,0,1-.3-.24Z"/>
          <path class="cls-5" d="M261.38,380.39a.31.31,0,0,1,.24-.34l1.71-.2a.3.3,0,0,1,.07.59l-1.7.21a.3.3,0,0,1-.32-.26Zm2.24-.26a.26.26,0,0,0-.28-.22l-1.7.2a.25.25,0,0,0-.2.28.26.26,0,0,0,.28.22l1.7-.2a.25.25,0,0,0,.2-.28Z"/>
          <path class="cls-14" d="M259.33,382.18a.27.27,0,0,1,.26-.28h3.87a.28.28,0,0,1,0,.56h-3.87A.27.27,0,0,1,259.33,382.18Z"/>
          <path class="cls-5" d="M259.31,382.18a.29.29,0,0,1,.28-.3h3.87a.3.3,0,0,1,0,.6h-3.87A.29.29,0,0,1,259.31,382.18Zm4.39,0a.27.27,0,0,0-.24-.26h-3.87a.25.25,0,0,0-.24.26.26.26,0,0,0,.24.26h3.87a.29.29,0,0,0,.24-.26Z"/>
          <path class="cls-14" d="M261.38,384.05a.28.28,0,0,1,.28-.26l1.72.13a.27.27,0,0,1,.24.29.28.28,0,0,1-.28.26l-1.72-.13a.28.28,0,0,1-.24-.29Z"/>
          <path class="cls-5" d="M261.37,384.05a.29.29,0,0,1,.29-.28l1.72.13a.29.29,0,0,1,.26.31.3.3,0,0,1-.3.28l-1.72-.13a.31.31,0,0,1-.25-.31Zm2.25.16a.23.23,0,0,0-.22-.25l-1.72-.13a.26.26,0,0,0-.26.24.23.23,0,0,0,.22.26l1.72.12A.28.28,0,0,0,263.62,384.21Z"/>
          <path class="cls-14" d="M259,385.4a.28.28,0,0,1,.31-.22l3.79.75a.27.27,0,0,1,.21.32.29.29,0,0,1-.32.22l-3.79-.76a.27.27,0,0,1-.2-.31Z"/>
          <path class="cls-5" d="M259,385.4a.29.29,0,0,1,.33-.24l3.79.76a.3.3,0,0,1,.23.35.31.31,0,0,1-.34.24l-3.79-.76a.31.31,0,0,1-.22-.35Zm4.31.87a.27.27,0,0,0-.19-.3l-3.79-.76a.25.25,0,0,0-.29.21.25.25,0,0,0,.18.29l3.79.76A.27.27,0,0,0,263.29,386.27Z"/>
          <path class="cls-14" d="M260.66,387.62a.29.29,0,0,1,.34-.21h0l1.66.47a.25.25,0,0,1,.18.33.26.26,0,0,1-.33.2h0l-1.66-.46a.27.27,0,0,1-.19-.33Z"/>
          <path class="cls-5" d="M260.64,387.62a.3.3,0,0,1,.36-.21l1.66.47a.28.28,0,0,1,.2.35.27.27,0,0,1-.35.2l-1.66-.46a.3.3,0,0,1-.21-.35Zm2.17.61a.27.27,0,0,0-.17-.32l-1.66-.46a.24.24,0,0,0-.3.19.25.25,0,0,0,.17.31l1.66.46A.27.27,0,0,0,262.81,388.23Z"/>
          <path class="cls-14" d="M258.06,388.5a.26.26,0,0,1,.35-.14l3.57,1.48a.27.27,0,0,1,.14.35.26.26,0,0,1-.35.15l-3.57-1.48a.27.27,0,0,1-.14-.36Z"/>
          <path class="cls-5" d="M258,388.49a.28.28,0,0,1,.37-.17L262,389.8a.29.29,0,0,1,.14.39.28.28,0,0,1-.37.16l-3.57-1.48A.3.3,0,0,1,258,388.49Zm4,1.68a.25.25,0,0,0-.13-.33l-3.57-1.48a.25.25,0,0,0-.32.14.26.26,0,0,0,.13.34l3.57,1.48A.26.26,0,0,0,262.09,390.17Z"/>
          <path class="cls-14" d="M259.26,391a.28.28,0,0,1,.35-.13l1.53.78a.26.26,0,0,1,.11.37.28.28,0,0,1-.35.13l-1.53-.78A.27.27,0,0,1,259.26,391Z"/>
          <path class="cls-5" d="M259.24,391a.28.28,0,0,1,.39-.13l1.53.78a.28.28,0,0,1,.13.39.28.28,0,0,1-.39.13l-1.53-.78A.27.27,0,0,1,259.24,391Zm2,1a.25.25,0,0,0-.11-.33l-1.54-.78a.28.28,0,0,0-.33.11.23.23,0,0,0,.11.33l1.53.78a.25.25,0,0,0,.34-.11Z"/>
          <path class="cls-14" d="M256.54,391.35a.25.25,0,0,1,.37-.07l3.22,2.14a.27.27,0,0,1,.07.37.26.26,0,0,1-.37.08l-3.22-2.15A.26.26,0,0,1,256.54,391.35Z"/>
          <path class="cls-5" d="M256.52,391.33a.33.33,0,0,1,.41-.09l3.21,2.15a.29.29,0,0,1,.08.4.33.33,0,0,1-.41.1l-3.22-2.15A.29.29,0,0,1,256.52,391.33Zm3.64,2.45a.26.26,0,0,0-.05-.36l-3.22-2.14a.23.23,0,0,0-.33.07.25.25,0,0,0,.05.35l3.22,2.15a.24.24,0,0,0,.33-.07Z"/>
          <path class="cls-14" d="M257.22,394a.27.27,0,0,1,.37,0l1.35,1a.27.27,0,0,1-.33.43l-1.35-1.06A.27.27,0,0,1,257.22,394Z"/>
          <path class="cls-5" d="M257.2,394a.3.3,0,0,1,.41-.06L259,395a.29.29,0,1,1-.35.47l-1.35-1.06A.29.29,0,0,1,257.2,394ZM259,395.4a.24.24,0,0,0,0-.35L257.59,394a.25.25,0,0,0-.35.05.24.24,0,0,0,0,.35l1.35,1.06a.27.27,0,0,0,.35-.06Z"/>
          <path class="cls-14" d="M254.47,393.85a.25.25,0,0,1,.37,0l2.73,2.72a.26.26,0,0,1-.37.37l-2.73-2.72a.29.29,0,0,1,0-.37Z"/>
          <path class="cls-5" d="M254.47,393.83a.28.28,0,0,1,.4,0l2.74,2.72a.29.29,0,0,1-.41.41l-2.73-2.72a.26.26,0,0,1,0-.41Zm3.1,3.09a.24.24,0,0,0,0-.35l-2.73-2.72a.26.26,0,0,0-.35,0,.24.24,0,0,0,0,.35l2.73,2.72a.23.23,0,0,0,.35,0Z"/>
          <path class="cls-14" d="M254.63,396.6a.26.26,0,0,1,.37,0l1.13,1.3a.26.26,0,0,1,0,.37.25.25,0,0,1-.36,0L254.6,397A.26.26,0,0,1,254.63,396.6Z"/>
          <path class="cls-5" d="M254.62,396.6a.28.28,0,0,1,.4,0l1.13,1.3a.27.27,0,0,1,0,.4.27.27,0,0,1-.4,0l-1.13-1.3a.3.3,0,0,1,0-.41Zm1.48,1.69a.25.25,0,0,0,0-.35l-1.13-1.3a.26.26,0,0,0-.35,0,.25.25,0,0,0,0,.35l1.12,1.3a.24.24,0,0,0,.35,0Z"/>
          <path class="cls-14" d="M252,395.9a.25.25,0,0,1,.37.08l2.15,3.2a.29.29,0,0,1-.08.37.25.25,0,0,1-.37-.08l-2.14-3.2a.28.28,0,0,1,.07-.37Z"/>
          <path class="cls-5" d="M252,395.88a.3.3,0,0,1,.41.08l2.14,3.2a.27.27,0,0,1-.09.4.29.29,0,0,1-.41-.07l-2.14-3.2a.29.29,0,0,1,.09-.41Zm2.44,3.65a.26.26,0,0,0,.08-.34l-2.15-3.2a.25.25,0,0,0-.35-.05.23.23,0,0,0-.07.33l2.14,3.2a.29.29,0,0,0,.35.06Z"/>
          <path class="cls-14" d="M251.58,398.64a.26.26,0,0,1,.37.09l.85,1.5a.27.27,0,0,1-.11.37.27.27,0,0,1-.37-.09l-.85-1.5a.3.3,0,0,1,.11-.37Z"/>
          <path class="cls-5" d="M251.58,398.62a.29.29,0,0,1,.39.09l.85,1.5a.27.27,0,0,1-.11.39.29.29,0,0,1-.39-.09l-.85-1.5a.29.29,0,0,1,.11-.39Zm1.11,2a.24.24,0,0,0,.09-.33l-.85-1.5a.26.26,0,0,0-.33-.09.24.24,0,0,0-.09.33l.85,1.5a.24.24,0,0,0,.33.09Z"/>
          <path class="cls-14" d="M249.12,397.42a.26.26,0,0,1,.35.13l1.5,3.57a.28.28,0,0,1-.15.35.28.28,0,0,1-.35-.13L249,397.77a.27.27,0,0,1,.14-.35Z"/>
          <path class="cls-5" d="M249.12,397.4a.3.3,0,0,1,.39.15l1.5,3.57a.29.29,0,0,1-.17.37.32.32,0,0,1-.39-.15L249,397.77a.3.3,0,0,1,.16-.37Zm1.69,4.05a.24.24,0,0,0,.13-.31l-1.5-3.57a.26.26,0,0,0-.34-.13.23.23,0,0,0-.12.31l1.49,3.57A.26.26,0,0,0,250.81,401.45Z"/>
          <path class="cls-14" d="M248.22,400a.27.27,0,0,1,.35.17l.53,1.63a.25.25,0,0,1-.16.33.26.26,0,0,1-.35-.17l-.54-1.62a.27.27,0,0,1,.17-.34Z"/>
          <path class="cls-5" d="M248.2,400a.28.28,0,0,1,.37.16l.53,1.63a.29.29,0,0,1-.18.37.28.28,0,0,1-.37-.17L248,400.4a.32.32,0,0,1,.19-.37Zm.72,2.12a.26.26,0,0,0,.17-.31l-.54-1.63a.25.25,0,0,0-.31-.15.26.26,0,0,0-.17.32l.54,1.62a.22.22,0,0,0,.29.16Z"/>
          <path class="cls-14" d="M246,398.36a.25.25,0,0,1,.31.2l.78,3.8a.28.28,0,0,1-.23.31.25.25,0,0,1-.31-.2l-.78-3.79a.31.31,0,0,1,.22-.32Z"/>
          <path class="cls-5" d="M246,398.34a.31.31,0,0,1,.35.22l.77,3.8a.28.28,0,0,1-.22.33.3.3,0,0,1-.35-.22l-.78-3.79a.29.29,0,0,1,.22-.34Zm.86,4.31a.26.26,0,0,0,.21-.29l-.78-3.8a.25.25,0,0,0-.3-.18.26.26,0,0,0-.2.3l.78,3.79a.25.25,0,0,0,.29.18Z"/>
          <path class="cls-14" d="M244.63,400.77a.27.27,0,0,1,.31.22l.23,1.7a.27.27,0,0,1-.24.29.29.29,0,0,1-.32-.22l-.22-1.7A.26.26,0,0,1,244.63,400.77Z"/>
          <path class="cls-5" d="M244.63,400.75a.29.29,0,0,1,.33.24l.22,1.7a.28.28,0,0,1-.25.31.3.3,0,0,1-.34-.24l-.22-1.7A.28.28,0,0,1,244.63,400.75Zm.28,2.22a.26.26,0,0,0,.22-.28l-.22-1.7a.25.25,0,0,0-.5.07l.22,1.7A.26.26,0,0,0,244.91,403Z"/>
          <path class="cls-14" d="M242.72,398.69a.28.28,0,0,1,.28.26v3.87a.28.28,0,0,1-.55,0V399A.29.29,0,0,1,242.72,398.69Z"/>
          <path class="cls-5" d="M242.72,398.68a.29.29,0,0,1,.3.27v3.87a.3.3,0,0,1-.59,0V399A.3.3,0,0,1,242.72,398.68Zm0,4.38a.26.26,0,0,0,.26-.24V399a.25.25,0,0,0-.26-.24.26.26,0,0,0-.25.24v3.87A.27.27,0,0,0,242.72,403.06Z"/>
          <path class="cls-14" d="M240.88,400.77a.27.27,0,0,1,.25.27l-.13,1.72a.26.26,0,0,1-.29.24.28.28,0,0,1-.26-.27l.13-1.72A.27.27,0,0,1,240.88,400.77Z"/>
          <path class="cls-5" d="M240.88,400.75a.29.29,0,0,1,.27.29l-.13,1.72a.28.28,0,0,1-.31.26.3.3,0,0,1-.28-.29l.13-1.72A.28.28,0,0,1,240.88,400.75Zm-.17,2.23a.25.25,0,0,0,.26-.22l.13-1.72a.27.27,0,0,0-.24-.26.25.25,0,0,0-.26.23l-.13,1.72a.26.26,0,0,0,.24.25Z"/>
          <path class="cls-14" d="M239.49,398.36a.29.29,0,0,1,.22.32l-.76,3.79a.25.25,0,0,1-.31.2.28.28,0,0,1-.22-.31l.75-3.8A.29.29,0,0,1,239.49,398.36Z"/>
          <path class="cls-5" d="M239.49,398.34a.31.31,0,0,1,.24.34l-.76,3.79a.3.3,0,0,1-.59-.11l.76-3.8a.31.31,0,0,1,.35-.22Zm-.87,4.31a.27.27,0,0,0,.3-.18l.75-3.79a.26.26,0,0,0-.2-.3.27.27,0,0,0-.3.19l-.75,3.79A.26.26,0,0,0,238.62,402.65Z"/>
          <path class="cls-14" d="M237.27,400a.26.26,0,0,1,.2.33L237,402a.27.27,0,0,1-.33.19.29.29,0,0,1-.21-.33h0l.47-1.67a.25.25,0,0,1,.33-.18Z"/>
          <path class="cls-5" d="M237.27,400a.27.27,0,0,1,.2.35L237,402a.3.3,0,0,1-.35.21.28.28,0,0,1-.2-.35l.46-1.67a.28.28,0,0,1,.35-.2Zm-.61,2.16A.25.25,0,0,0,237,402l.47-1.66a.25.25,0,0,0-.19-.3.26.26,0,0,0-.31.17l-.47,1.67A.28.28,0,0,0,236.66,402.17Z"/>
          <path class="cls-14" d="M236.36,397.42a.26.26,0,0,1,.15.35L235,401.34a.26.26,0,0,1-.35.13.3.3,0,0,1-.15-.35l1.48-3.57a.25.25,0,0,1,.35-.13Z"/>
          <path class="cls-5" d="M236.36,397.4a.28.28,0,0,1,.17.37l-1.48,3.57a.3.3,0,0,1-.39.15.28.28,0,0,1-.16-.37l1.47-3.57A.3.3,0,0,1,236.36,397.4Zm-1.68,4.05a.24.24,0,0,0,.33-.13l1.48-3.57a.23.23,0,0,0-.15-.31.25.25,0,0,0-.33.13l-1.48,3.57A.27.27,0,0,0,234.68,401.45Z"/>
          <path class="cls-14" d="M233.87,398.6a.28.28,0,0,1,.13.35l-.78,1.54a.28.28,0,0,1-.5-.24l.78-1.54A.27.27,0,0,1,233.87,398.6Z"/>
          <path class="cls-5" d="M233.87,398.58a.3.3,0,0,1,.13.39l-.78,1.54a.29.29,0,0,1-.39.13.29.29,0,0,1-.13-.39l.78-1.54A.28.28,0,0,1,233.87,398.58Zm-1,2a.24.24,0,0,0,.33-.11L234,399a.28.28,0,0,0-.11-.33.24.24,0,0,0-.33.11l-.78,1.54a.26.26,0,0,0,.11.33Z"/>
          <path class="cls-14" d="M233.5,395.87a.24.24,0,0,1,.07.36l-2.14,3.2a.27.27,0,0,1-.37.08.26.26,0,0,1-.08-.37l2.15-3.2a.25.25,0,0,1,.37-.08Z"/>
          <path class="cls-5" d="M233.5,395.85a.31.31,0,0,1,.09.4l-2.15,3.2a.29.29,0,0,1-.4.08.33.33,0,0,1-.1-.41l2.15-3.2a.29.29,0,0,1,.41-.07Zm-2.44,3.64a.26.26,0,0,0,.35-.06l2.14-3.2a.23.23,0,0,0-.07-.33.26.26,0,0,0-.35.06L231,399.14a.26.26,0,0,0,.08.35Z"/>
          <path class="cls-14" d="M230.8,396.55a.27.27,0,0,1,0,.37l-1.07,1.35a.27.27,0,0,1-.37,0,.27.27,0,0,1-.06-.37l1.08-1.35A.27.27,0,0,1,230.8,396.55Z"/>
          <path class="cls-5" d="M230.82,396.53a.31.31,0,0,1,.05.41l-1.07,1.35a.27.27,0,0,1-.41,0,.28.28,0,0,1,0-.4l1.07-1.35A.28.28,0,0,1,230.82,396.53Zm-1.39,1.76a.24.24,0,0,0,.35,0l1.07-1.35a.25.25,0,0,0,0-.35.24.24,0,0,0-.35,0l-1.08,1.35a.26.26,0,0,0,.06.35Z"/>
          <path class="cls-14" d="M231,393.78a.25.25,0,0,1,0,.37l-2.74,2.71a.24.24,0,0,1-.36,0,.25.25,0,0,1,0-.37l2.71-2.71A.26.26,0,0,1,231,393.78Z"/>
          <path class="cls-5" d="M231,393.76a.28.28,0,0,1,0,.4l-2.74,2.72a.28.28,0,0,1-.4-.4l2.73-2.72A.3.3,0,0,1,231,393.76Zm-3.12,3.1a.24.24,0,0,0,.35,0l2.73-2.72a.24.24,0,0,0,0-.35.26.26,0,0,0-.35,0l-2.73,2.72a.24.24,0,0,0,0,.35Z"/>
          <path class="cls-14" d="M228.21,393.92a.27.27,0,0,1,0,.37l-1.31,1.11a.26.26,0,0,1-.37,0,.25.25,0,0,1,0-.37l1.31-1.11A.26.26,0,0,1,228.21,393.92Z"/>
          <path class="cls-5" d="M228.23,393.9a.29.29,0,0,1,0,.41l-1.32,1.11a.27.27,0,0,1-.4,0,.28.28,0,0,1,0-.4l1.31-1.11a.29.29,0,0,1,.41,0Zm-1.7,1.47a.25.25,0,0,0,.35,0l1.31-1.11a.26.26,0,0,0-.33-.39L226.54,395a.24.24,0,0,0,0,.36Z"/>
          <path class="cls-14" d="M229,391.26a.25.25,0,0,1-.08.37l-3.21,2.15a.29.29,0,0,1-.37-.08.24.24,0,0,1,.07-.37l3.22-2.14a.28.28,0,0,1,.37.07Z"/>
          <path class="cls-5" d="M229,391.26a.3.3,0,0,1-.08.41l-3.22,2.14a.28.28,0,0,1-.4-.09.3.3,0,0,1,.07-.41l3.22-2.14a.29.29,0,0,1,.41.09Zm-3.67,2.42a.26.26,0,0,0,.34.08l3.22-2.15a.24.24,0,0,0,0-.35.23.23,0,0,0-.33-.07l-3.22,2.14a.27.27,0,0,0-.06.35Z"/>
          <path class="cls-14" d="M226.19,390.87a.26.26,0,0,1-.09.37l-1.5.85a.28.28,0,0,1-.28-.48l1.5-.85a.28.28,0,0,1,.37.11Z"/>
          <path class="cls-5" d="M226.21,390.85a.29.29,0,0,1-.09.39l-1.5.85a.29.29,0,0,1-.3-.5l1.5-.85a.3.3,0,0,1,.39.11Zm-2,1.11a.23.23,0,0,0,.33.1l1.5-.86a.26.26,0,0,0,.09-.33.23.23,0,0,0-.33-.09l-1.5.85a.25.25,0,0,0-.09.33Z"/>
          <path class="cls-14" d="M227.43,388.41a.25.25,0,0,1-.15.35l-3.57,1.48a.28.28,0,0,1-.35-.14.27.27,0,0,1,.15-.36l3.57-1.48a.26.26,0,0,1,.35.15Z"/>
          <path class="cls-5" d="M227.45,388.39a.3.3,0,0,1-.15.39l-3.57,1.48a.29.29,0,0,1-.37-.16.31.31,0,0,1,.15-.39l3.57-1.48a.29.29,0,0,1,.37.16Zm-4,1.69a.25.25,0,0,0,.31.14l3.57-1.47a.26.26,0,0,0,.13-.34.26.26,0,0,0-.31-.15l-3.57,1.48a.26.26,0,0,0-.13.34Z"/>
          <path class="cls-14" d="M224.82,387.49a.26.26,0,0,1-.16.35l-1.63.54a.27.27,0,0,1-.17-.52l1.63-.54A.25.25,0,0,1,224.82,387.49Z"/>
          <path class="cls-5" d="M224.84,387.47a.28.28,0,0,1-.18.37l-1.63.54a.3.3,0,0,1-.37-.19.28.28,0,0,1,.19-.37l1.62-.54a.32.32,0,0,1,.37.19Zm-2.14.7a.25.25,0,0,0,.31.17l1.63-.54a.25.25,0,0,0,.15-.31.26.26,0,0,0-.32-.17l-1.62.54A.25.25,0,0,0,222.7,388.17Z"/>
          <path class="cls-14" d="M226.49,385.29a.25.25,0,0,1-.21.31l-3.79.74a.27.27,0,0,1-.31-.22.25.25,0,0,1,.2-.32l3.79-.73a.28.28,0,0,1,.32.22Z"/>
          <path class="cls-5" d="M226.53,385.29a.31.31,0,0,1-.23.35l-3.79.74a.3.3,0,0,1-.11-.59l3.79-.74A.29.29,0,0,1,226.53,385.29Zm-4.31.83a.23.23,0,0,0,.27.2l3.79-.74a.24.24,0,0,0,.19-.29.26.26,0,0,0-.28-.21l-3.79.74a.25.25,0,0,0-.18.3Z"/>
          <path class="cls-14" d="M224.12,383.86a.26.26,0,0,1-.22.3l-1.7.2a.27.27,0,0,1-.3-.24.25.25,0,0,1,.22-.29l1.71-.21A.29.29,0,0,1,224.12,383.86Z"/>
          <path class="cls-5" d="M224.14,383.86a.3.3,0,0,1-.24.34l-1.7.2a.29.29,0,0,1-.32-.26.3.3,0,0,1,.24-.33l1.71-.21a.3.3,0,0,1,.31.26Zm-2.24.26a.26.26,0,0,0,.28.22l1.7-.2a.25.25,0,0,0-.07-.5l-1.7.2A.25.25,0,0,0,221.9,384.12Z"/>
          <path class="cls-14" d="M226.19,382.07a.27.27,0,0,1-.26.28h-3.86a.28.28,0,0,1,0-.56h3.86a.27.27,0,0,1,.26.28Z"/>
          <path class="cls-5" d="M226.21,382.07a.29.29,0,0,1-.28.3h-3.86a.3.3,0,0,1,0-.6h3.86a.29.29,0,0,1,.28.3Zm-4.38,0a.26.26,0,0,0,.24.26h3.86a.25.25,0,0,0,.24-.26.26.26,0,0,0-.24-.26h-3.86a.28.28,0,0,0-.24.26Z"/>
          <path class="cls-15" d="M224.14,380.2a.28.28,0,0,1-.28.26l-1.72-.13a.27.27,0,0,1-.24-.29.28.28,0,0,1,.28-.26l1.72.13A.28.28,0,0,1,224.14,380.2Z"/>
          <path class="cls-5" d="M224.16,380.2a.3.3,0,0,1-.3.28l-1.72-.13a.29.29,0,0,1-.26-.31.3.3,0,0,1,.3-.28l1.72.13a.31.31,0,0,1,.26.31ZM221.9,380a.23.23,0,0,0,.22.25l1.72.13a.26.26,0,0,0,.26-.24.23.23,0,0,0-.22-.26l-1.72-.13a.29.29,0,0,0-.26.25Z"/>
          <path class="cls-14" d="M226.53,378.85a.29.29,0,0,1-.32.22l-3.79-.77a.26.26,0,0,1-.2-.32.27.27,0,0,1,.31-.22l3.79.76a.32.32,0,0,1,.21.33Z"/>
          <path class="cls-5" d="M226.54,378.85a.29.29,0,0,1-.33.24l-3.79-.76a.29.29,0,0,1-.22-.35.3.3,0,0,1,.33-.24l3.79.76a.31.31,0,0,1,.22.35Zm-4.31-.87a.28.28,0,0,0,.19.3l3.79.76a.27.27,0,0,0,.3-.21.26.26,0,0,0-.19-.29l-3.79-.76a.27.27,0,0,0-.3.2Z"/>
          <path class="cls-14" d="M224.86,376.63a.28.28,0,0,1-.33.21h0l-1.67-.47a.26.26,0,0,1-.18-.33.26.26,0,0,1,.33-.2h0l1.67.46a.26.26,0,0,1,.18.33Z"/>
          <path class="cls-5" d="M224.88,376.63a.29.29,0,0,1-.35.21l-1.67-.47a.29.29,0,0,1-.2-.35.27.27,0,0,1,.35-.2l1.67.46a.29.29,0,0,1,.2.35Zm-2.16-.61a.26.26,0,0,0,.16.32l1.67.46a.23.23,0,0,0,.29-.19.25.25,0,0,0-.16-.31l-1.67-.46a.25.25,0,0,0-.29.18Z"/>
          <path class="cls-14" d="M227.47,375.74a.26.26,0,0,1-.35.15l-3.57-1.48a.27.27,0,0,1-.15-.35.27.27,0,0,1,.35-.15l3.57,1.48a.27.27,0,0,1,.15.35Z"/>
          <path class="cls-5" d="M227.49,375.76a.29.29,0,0,1-.37.17l-3.57-1.48a.29.29,0,0,1-.15-.39.28.28,0,0,1,.37-.16l3.57,1.47A.32.32,0,0,1,227.49,375.76Zm-4.05-1.68a.24.24,0,0,0,.13.33l3.57,1.48a.24.24,0,0,0,.31-.15.25.25,0,0,0-.13-.33l-3.57-1.48a.25.25,0,0,0-.31.15Z"/>
          <path class="cls-14" d="M226.27,373.25a.3.3,0,0,1-.36.13l-1.53-.78a.26.26,0,0,1-.11-.37.28.28,0,0,1,.35-.13l1.54.78a.29.29,0,0,1,.11.37Z"/>
          <path class="cls-5" d="M226.28,373.27a.28.28,0,0,1-.38.13l-1.54-.78a.29.29,0,1,1,.26-.52l1.54.78a.28.28,0,0,1,.12.39Zm-2-1a.23.23,0,0,0,.11.33l1.53.78a.29.29,0,0,0,.34-.11.25.25,0,0,0-.11-.33l-1.56-.78a.22.22,0,0,0-.31.11Z"/>
          <path class="cls-14" d="M229,372.9a.25.25,0,0,1-.37.07l-3.19-2.13a.27.27,0,0,1-.08-.37.25.25,0,0,1,.37-.07l3.22,2.15a.24.24,0,0,1,0,.35Z"/>
          <path class="cls-5" d="M229,372.92a.33.33,0,0,1-.4.09l-3.2-2.15a.29.29,0,0,1-.08-.4.33.33,0,0,1,.41-.1l3.2,2.15a.28.28,0,0,1,.07.41Zm-3.64-2.45a.27.27,0,0,0,.06.36l3.21,2.14a.25.25,0,0,0,.34-.07.26.26,0,0,0-.06-.35l-3.22-2.15a.24.24,0,0,0-.33.07Z"/>
          <path class="cls-14" d="M228.3,370.22a.27.27,0,0,1-.37,0l-1.35-1a.27.27,0,0,1,0-.37.27.27,0,0,1,.37-.06l1.35,1.06A.27.27,0,0,1,228.3,370.22Z"/>
          <path class="cls-5" d="M228.32,370.23a.3.3,0,0,1-.41.06l-1.35-1.05a.29.29,0,0,1,.35-.47l1.35,1.06a.29.29,0,0,1,.06.4Zm-1.78-1.38a.24.24,0,0,0,0,.35l1.35,1.05a.25.25,0,0,0,.35-.05.24.24,0,0,0,0-.35l-1.35-1.06a.27.27,0,0,0-.35.06Z"/>
          <path class="cls-14" d="M231.06,370.4a.25.25,0,0,1-.37,0l-2.76-2.72a.27.27,0,0,1,0-.37.25.25,0,0,1,.37,0L231,370a.27.27,0,0,1,0,.37Z"/>
          <path class="cls-5" d="M231.06,370.42a.3.3,0,0,1-.41,0l-2.74-2.72a.29.29,0,0,1,.41-.41l2.74,2.72a.26.26,0,0,1,0,.41ZM228,367.33a.26.26,0,0,0,0,.35l2.74,2.72a.25.25,0,1,0,.35-.35l-2.74-2.74a.24.24,0,0,0-.35,0Z"/>
          <path class="cls-14" d="M230.89,367.64a.26.26,0,0,1-.37,0l-1.13-1.3a.27.27,0,0,1,.41-.35l1.13,1.3a.26.26,0,0,1,0,.36Z"/>
          <path class="cls-5" d="M230.91,367.64a.29.29,0,0,1-.41,0l-1.13-1.3a.27.27,0,0,1,0-.4.29.29,0,0,1,.41,0l1.12,1.3A.27.27,0,0,1,230.91,367.64ZM229.43,366a.26.26,0,0,0,0,.35l1.13,1.3a.26.26,0,0,0,.35,0,.26.26,0,0,0,0-.35l-1.13-1.3a.24.24,0,0,0-.35,0Z"/>
          <path class="cls-14" d="M233.55,368.35a.25.25,0,0,1-.37-.08l-2.16-3.2a.28.28,0,0,1,.07-.37.25.25,0,0,1,.37.08l2.15,3.2a.27.27,0,0,1-.06.37Z"/>
          <path class="cls-5" d="M233.55,368.37a.29.29,0,0,1-.4-.08l-2.15-3.2a.28.28,0,0,1,.09-.4.29.29,0,0,1,.41.07l2.14,3.2A.28.28,0,0,1,233.55,368.37Zm-2.44-3.65a.24.24,0,0,0-.07.34l2.14,3.2a.26.26,0,0,0,.35.05.24.24,0,0,0,.08-.33l-2.15-3.18a.27.27,0,0,0-.35-.08Z"/>
          <path class="cls-14" d="M233.94,365.61a.27.27,0,0,1-.37-.09l-.85-1.5a.28.28,0,0,1,.11-.37.27.27,0,0,1,.37.09l.85,1.5a.29.29,0,0,1-.11.37Z"/>
          <path class="cls-5" d="M233.94,365.63a.29.29,0,0,1-.39-.09l-.85-1.5a.28.28,0,0,1,.11-.39.29.29,0,0,1,.39.09l.85,1.5a.28.28,0,0,1-.11.39Zm-1.11-2a.24.24,0,0,0-.09.33l.85,1.5a.26.26,0,0,0,.33.09.24.24,0,0,0,.09-.33l-.85-1.5a.23.23,0,0,0-.33-.09Z"/>
          <path class="cls-14" d="M236.4,366.83a.26.26,0,0,1-.35-.13l-1.5-3.57a.29.29,0,0,1,.15-.35.27.27,0,0,1,.35.13l1.5,3.57a.28.28,0,0,1-.15.35Z"/>
          <path class="cls-5" d="M236.4,366.85a.3.3,0,0,1-.39-.15l-1.5-3.57a.29.29,0,0,1,.17-.37.31.31,0,0,1,.39.15l1.5,3.57a.31.31,0,0,1-.17.37Zm-1.68-4.05a.23.23,0,0,0-.13.31l1.5,3.57a.24.24,0,0,0,.33.13.23.23,0,0,0,.13-.31l-1.5-3.57a.25.25,0,0,0-.33-.13Z"/>
          <path class="cls-14" d="M237.31,364.21A.27.27,0,0,1,237,364l-.54-1.63a.26.26,0,0,1,.17-.33.29.29,0,0,1,.35.17l.53,1.62a.26.26,0,0,1-.16.34Z"/>
          <path class="cls-5" d="M237.32,364.22a.27.27,0,0,1-.36-.16l-.54-1.63a.3.3,0,0,1,.18-.37.28.28,0,0,1,.37.17l.54,1.62A.31.31,0,0,1,237.32,364.22Zm-.72-2.12a.24.24,0,0,0-.16.31L237,364a.26.26,0,0,0,.32.15.26.26,0,0,0,.16-.32l-.53-1.63a.23.23,0,0,0-.29-.15Z"/>
          <path class="cls-14" d="M239.49,365.89a.26.26,0,0,1-.32-.21l-.77-3.79a.27.27,0,0,1,.22-.31.24.24,0,0,1,.31.2l.78,3.79A.3.3,0,0,1,239.49,365.89Z"/>
          <path class="cls-5" d="M239.49,365.91a.3.3,0,0,1-.35-.23l-.78-3.79a.28.28,0,0,1,.22-.33.29.29,0,0,1,.35.22l.78,3.79a.28.28,0,0,1-.22.34Zm-.87-4.31a.25.25,0,0,0-.2.29l.77,3.79a.25.25,0,0,0,.3.19.26.26,0,0,0,.2-.3l-.77-3.79a.27.27,0,0,0-.3-.18Z"/>
          <path class="cls-14" d="M240.89,363.48a.28.28,0,0,1-.31-.22l-.22-1.7a.27.27,0,0,1,.24-.3.29.29,0,0,1,.31.23l.22,1.7a.26.26,0,0,1-.24.29Z"/>
          <path class="cls-5" d="M240.89,363.5a.29.29,0,0,1-.33-.24l-.22-1.7a.28.28,0,0,1,.26-.31.29.29,0,0,1,.33.24l.22,1.7A.28.28,0,0,1,240.89,363.5Zm-.27-2.22a.28.28,0,0,0-.23.28l.23,1.7a.25.25,0,0,0,.27.21.28.28,0,0,0,.23-.28l-.23-1.7a.24.24,0,0,0-.27-.21Z"/>
          <circle class="cls-16" cx="242.89" cy="382.11" r="21.9"/>
        </g>
        <polygon class="cls-17" points="258.06 368.22 240.4 379.54 240.38 379.54 240.38 379.55 240.36 379.57 229.34 397.75 245.54 384.71 245.55 384.7 245.55 384.68 258.06 368.22 258.06 368.22"/>
        <path class="cls-18" d="M257.72,367.16l-17.45,12.41,5.17,5.14,12.28-17.55"/>
        <path class="cls-19" d="M240.28,379.54l2.61,2.57,14.83-14.95-17.44,12.38Z"/>
        <path class="cls-20" d="M240.28,379.54l5.18,5.14L228,397.09l12.28-17.55Z"/>
        <path class="cls-21" d="M228,397.09l14.89-15-2.61-2.57L228,397.09Z"/>
      </g>
    </g>
    <g>
      <path class="cls-6" d="M997.11,364.49v35.27a15.56,15.56,0,0,1-15.57,15.56H946.27a15.55,15.55,0,0,1-15.56-15.56V364.49a15.56,15.56,0,0,1,15.56-15.57h35.27a15.57,15.57,0,0,1,15.57,15.57Z"/>
      <g>
        <path class="cls-5" d="M950.93,372.05l2.23-4.4h2.45l-3.55,6.54v4.16H949.8v-4.09l-3.55-6.61h2.46Z"/>
        <path class="cls-5" d="M964.22,374.25a4.39,4.39,0,0,1-1.05,3.12,3.86,3.86,0,0,1-2.94,1.13,4,4,0,0,1-2.08-.52,3.44,3.44,0,0,1-1.39-1.48,5,5,0,0,1-.48-2.25,4.4,4.4,0,0,1,1.05-3.13,3.85,3.85,0,0,1,2.94-1.11,4.14,4.14,0,0,1,2.08.51,3.49,3.49,0,0,1,1.39,1.48A5,5,0,0,1,964.22,374.25Zm-5.66,0a3.36,3.36,0,0,0,.4,1.83,1.64,1.64,0,0,0,2.58,0,3.51,3.51,0,0,0,.4-1.84,3.43,3.43,0,0,0-.4-1.83,1.45,1.45,0,0,0-1.3-.61,1.4,1.4,0,0,0-1.28.61A3.31,3.31,0,0,0,958.56,374.25Z"/>
        <path class="cls-5" d="M971.87,378.35l-.3-1h-.12a2.38,2.38,0,0,1-1,.88,3.44,3.44,0,0,1-1.5.31,2.89,2.89,0,0,1-2.18-.77,3.17,3.17,0,0,1-.73-2.23v-5.33h2.24V375a2.31,2.31,0,0,0,.31,1.33,1.16,1.16,0,0,0,1,.44,1.51,1.51,0,0,0,1.36-.63,3.84,3.84,0,0,0,.42-2.07v-3.85h2.23v8.18Z"/>
        <path class="cls-5" d="M980.5,370a3.18,3.18,0,0,1,.75.07l-.17,2.09a2.52,2.52,0,0,0-.66-.07,2.33,2.33,0,0,0-1.66.55,2,2,0,0,0-.6,1.54v4.16h-2.24v-8.18h1.7l.33,1.37h.11a3,3,0,0,1,1-1.11A2.59,2.59,0,0,1,980.5,370Z"/>
        <path class="cls-5" d="M957.14,394.35l-.77-2.55h-3.91l-.77,2.55h-2.45L953,383.6h2.77l3.8,10.75Zm-1.32-4.45c-.71-2.31-1.12-3.61-1.21-3.92s-.15-.54-.19-.72c-.16.63-.63,2.18-1.39,4.64Z"/>
        <path class="cls-5" d="M965.26,394.5a2.7,2.7,0,0,1-2.26-1.05h-.12c.08.69.12,1.08.12,1.19V398h-2.24V386.17h1.82l.31,1.06H963a2.58,2.58,0,0,1,2.32-1.22,2.66,2.66,0,0,1,2.27,1.12,5.26,5.26,0,0,1,.82,3.12,6,6,0,0,1-.39,2.27,3.18,3.18,0,0,1-1.09,1.48A2.86,2.86,0,0,1,965.26,394.5Zm-.66-6.7a1.41,1.41,0,0,0-1.21.51A2.88,2.88,0,0,0,963,390v.24a3.37,3.37,0,0,0,.39,1.89,1.39,1.39,0,0,0,1.24.57c1,0,1.5-.82,1.5-2.47a3.54,3.54,0,0,0-.37-1.82A1.26,1.26,0,0,0,964.6,387.8Z"/>
        <path class="cls-5" d="M974.75,394.5a2.7,2.7,0,0,1-2.26-1.05h-.12c.08.69.12,1.08.12,1.19V398h-2.24V386.17h1.82l.31,1.06h.11a2.58,2.58,0,0,1,2.32-1.22,2.65,2.65,0,0,1,2.27,1.12,5.19,5.19,0,0,1,.82,3.12,6,6,0,0,1-.39,2.27,3.18,3.18,0,0,1-1.09,1.48A2.84,2.84,0,0,1,974.75,394.5Zm-.66-6.7a1.42,1.42,0,0,0-1.21.51,3,3,0,0,0-.39,1.68v.24a3.46,3.46,0,0,0,.39,1.89,1.39,1.39,0,0,0,1.24.57c1,0,1.5-.82,1.5-2.47a3.54,3.54,0,0,0-.37-1.82A1.26,1.26,0,0,0,974.09,387.8Z"/>
      </g>
    </g>
    <g>
      <g>
        <g>
          <polygon class="cls-8" points="161.09 138.75 149.8 138.75 149.8 133 151.06 133 151.06 137.49 161.09 137.49 161.09 138.75"/>
          <rect class="cls-8" x="162.69" y="137.49" width="2.23" height="1.26"/>
          <polygon class="cls-7" points="190.94 136.37 152.18 136.37 152.18 112.06 156.18 108.8 156.98 109.78 153.44 112.66 153.44 135.11 189.68 135.11 189.68 112.66 185.8 109.5 186.59 108.52 190.94 112.06 190.94 136.37"/>
          <polygon class="cls-7" points="167.47 101.24 166.67 100.27 171.56 96.29 176.39 100.22 175.6 101.19 171.56 97.91 167.47 101.24"/>
          <polygon class="cls-7" points="189.48 136.12 171.56 124.21 153.79 136.11 153.09 135.06 171.56 122.7 190.18 135.07 189.48 136.12"/>
          <rect class="cls-7" x="155.8" y="116.67" width="1.26" height="10.33" transform="translate(-41.05 139.61) rotate(-43.05)"/>
          <rect class="cls-7" x="177.93" y="122.86" width="14.85" height="1.26" transform="translate(-31.42 174.63) rotate(-46.95)"/>
          <polygon class="cls-8" points="189.24 106.84 187.98 106.84 187.98 103.86 185.25 101.63 186.05 100.65 189.24 103.26 189.24 106.84"/>
          <rect class="cls-8" x="182.94" y="98.44" width="1.26" height="2.01" transform="translate(-9.69 178.42) rotate(-50.67)"/>
          <polygon class="cls-7" points="186.86 122.7 185.6 122.7 185.6 104.99 181.31 101.48 157.28 101.48 157.28 122.27 156.02 122.27 156.02 100.22 181.76 100.22 186.86 104.39 186.86 122.7"/>
          <rect class="cls-22" x="163.01" y="109.63" width="16.1" height="1.26"/>
          <rect class="cls-22" x="163.01" y="112.85" width="9.66" height="1.26"/>
          <rect class="cls-22" x="163.01" y="106.41" width="16.1" height="1.26"/>
          <rect class="cls-22" x="174.29" y="119.35" width="7.13" height="1.26"/>
        </g>
        <g>
          <rect class="cls-23" x="274.09" y="28.41" width="37.11" height="41.02"/>
          <g>
            <path class="cls-7" d="M304.28,55.7l-.84-.93,1.72-1.55a1.47,1.47,0,0,0,0-2.06l-8.78-8.77a1.46,1.46,0,0,0-2.08,0l-1.71,1.71-.89-.89,1.71-1.71a2.72,2.72,0,0,1,3.86,0L306,50.27a2.74,2.74,0,0,1,0,3.86Z"/>
            <rect class="cls-7" x="298.7" y="44.97" width="1.26" height="11.56" transform="translate(51.78 226.51) rotate(-45)"/>
            <path class="cls-7" d="M281.57,57.38,279.18,55a2.6,2.6,0,0,1,0-3.67l9-9a2.6,2.6,0,0,1,3.67,0l.79.79-.89.89-.79-.79a1.34,1.34,0,0,0-1.89,0l-9,9a1.34,1.34,0,0,0,0,1.89l2.39,2.39Z"/>
            <path class="cls-7" d="M303.3,60.37a2.69,2.69,0,0,1-1.92-.8l-4.87-4.87.89-.89,4.87,4.87a1.48,1.48,0,0,0,2.05,0,1.45,1.45,0,0,0,0-2l-4.87-4.88.89-.89,4.87,4.88a2.69,2.69,0,0,1,0,3.82A2.65,2.65,0,0,1,303.3,60.37Z"/>
            <path class="cls-7" d="M301.39,64.33a2.69,2.69,0,0,1-1.91-.79l-5.91-5.9.89-.89,5.91,5.9a1.45,1.45,0,0,0,2.05-2l-4.88-4.88.89-.89,4.88,4.88a2.7,2.7,0,0,1-1.92,4.61Z"/>
            <path class="cls-7" d="M299.07,67.88a2.69,2.69,0,0,1-1.91-.79l-4.88-4.87.89-.89,4.88,4.87a1.44,1.44,0,1,0,2-2l-4.87-4.88.89-.89L301,63.27a2.7,2.7,0,0,1-1.91,4.61Z"/>
            <path class="cls-7" d="M294.49,69.17a2.67,2.67,0,0,1-1.91-.79l-.54-.53.89-.89.54.53a1.43,1.43,0,0,0,2,0,1.42,1.42,0,0,0,0-2l-4.87-4.88.89-.89,4.87,4.88a2.7,2.7,0,0,1-1.91,4.61Z"/>
            <path class="cls-7" d="M291,50.41a2.69,2.69,0,0,1-1.91-.79,2.72,2.72,0,0,1,0-3.83l4.25-4.24.89.89L290,46.69a1.43,1.43,0,0,0-.42,1,1.45,1.45,0,0,0,.42,1,1.46,1.46,0,0,0,2,0l3.51-3.54.89.89-3.51,3.54A2.69,2.69,0,0,1,291,50.41Z"/>
            <path class="cls-7" d="M282.47,61.51a2.47,2.47,0,0,1-1.75-4.22l.38-.37a2.52,2.52,0,0,1,3.5,0,2.45,2.45,0,0,1,.72,1.74,2.49,2.49,0,0,1-.72,1.75l-.38.38A2.46,2.46,0,0,1,282.47,61.51Zm.38-4.06a1.2,1.2,0,0,0-.86.36l-.37.37a1.21,1.21,0,0,0,1.71,1.72l.37-.38a1.21,1.21,0,0,0,0-1.71A1.22,1.22,0,0,0,282.85,57.45Z"/>
            <path class="cls-7" d="M285.11,64.15a2.47,2.47,0,0,1-1.74-4.22l.37-.37a2.47,2.47,0,0,1,3.5,3.49l-.38.38A2.43,2.43,0,0,1,285.11,64.15Zm.38-4.06a1.21,1.21,0,0,0-.86.36l-.37.37a1.21,1.21,0,0,0,0,1.72,1.23,1.23,0,0,0,1.71,0l.38-.38a1.22,1.22,0,0,0-.86-2.07Z"/>
            <path class="cls-7" d="M287.76,66.79A2.47,2.47,0,0,1,286,62.57l.37-.37a2.47,2.47,0,0,1,3.5,3.49l-.38.38A2.45,2.45,0,0,1,287.76,66.79Zm.37-4.06a1.21,1.21,0,0,0-.86.36l-.37.37a1.22,1.22,0,0,0-.36.86,1.2,1.2,0,0,0,.36.86,1.23,1.23,0,0,0,1.71,0l.38-.38a1.22,1.22,0,0,0-.86-2.07Z"/>
            <path class="cls-7" d="M290.4,69.43a2.47,2.47,0,0,1-1.75-4.21l.38-.38a2.53,2.53,0,0,1,3.49,0,2.46,2.46,0,0,1,0,3.5l-.37.37A2.49,2.49,0,0,1,290.4,69.43Zm.37-4.05a1.19,1.19,0,0,0-.85.35l-.38.38a1.21,1.21,0,1,0,1.72,1.71l.37-.37a1.22,1.22,0,0,0,.36-.86,1.21,1.21,0,0,0-1.22-1.21Z"/>
            <path class="cls-7" d="M277.48,54.8l-4.18-4.18,14.15-14.15,4.18,4.18Zm-2.4-4.18,2.4,2.4,12.37-12.37-2.4-2.4Z"/>
            <rect class="cls-8" x="305.9" y="40.37" width="1.26" height="2.23" transform="translate(60.48 228.94) rotate(-45.01)"/>
            <polygon class="cls-8" points="303.82 39.66 298.04 33.88 295.26 36.65 294.37 35.76 298.04 32.1 304.71 38.77 303.82 39.66"/>
            <path class="cls-7" d="M307.68,53.67,293.86,39.85,298,35.67l13.82,13.82Zm-12-13.82,12,12,2.4-2.4-12-12Z"/>
            <g>
              <circle class="cls-22" cx="278" cy="49.92" r="0.59"/>
              <circle class="cls-22" cx="279.2" cy="48.72" r="0.59"/>
            </g>
            <g>
              <circle class="cls-24" cx="307.51" cy="49.32" r="0.59"/>
              <circle class="cls-24" cx="306.31" cy="48.12" r="0.59"/>
            </g>
          </g>
        </g>
        <g>
          <path class="cls-8" d="M245,84.28a1.09,1.09,0,0,1-.64-.21l-3.42-2.44h-.06a10.79,10.79,0,0,1-1.26.14l-.08-1.24c.38,0,.75-.07,1.13-.13l.28-.06.27-.06,3.58,2.56-.61-3.67.36-.22c2.88-1.77,4.43-4.75,4-7.59-.69-4.15-5.34-6.85-10.35-6a10.77,10.77,0,0,0-3.46,1.2l-.61-1.09a12.31,12.31,0,0,1,3.86-1.35c5.7-.94,11,2.21,11.79,7a8.84,8.84,0,0,1-4.18,8.64l.53,3.19a1.09,1.09,0,0,1-.5,1.12,1.07,1.07,0,0,1-.31.13A.86.86,0,0,1,245,84.28Z"/>
          <path class="cls-8" d="M244,78.06l-.49-.8A6.82,6.82,0,0,0,246,74.54l.84.42A7.73,7.73,0,0,1,244,78.06Z"/>
          <path class="cls-7" d="M242.71,97.49h-5V96.24h5a1.16,1.16,0,1,0,0-2.32h-5V92.67h5a2.41,2.41,0,1,1,0,4.82Z"/>
          <path class="cls-7" d="M242.71,101.06h-3.16V99.81h3.16a1.16,1.16,0,0,0,0-2.32h-3.16V96.24h3.16a2.41,2.41,0,0,1,0,4.82Z"/>
          <path class="cls-7" d="M242.71,93.92h-3.16V92.67h3.16a1.16,1.16,0,1,0,0-2.31h-7.64l-.17-.13c-1.48-1.12-.58-3.28.19-4.38.57-.72,2-3,1.37-4.17a1.68,1.68,0,0,0-1.67-1,18.58,18.58,0,0,1-1.93,4,38.08,38.08,0,0,1-5.21,5.56l-.83-.94a37.15,37.15,0,0,0,5-5.29,16.67,16.67,0,0,0,1.89-4l.1-.33.32-.1a2.94,2.94,0,0,1,3.45,1.59c1.1,2.11-1.21,5.16-1.47,5.5h0s-1.17,1.76-.57,2.51h7.18a2.41,2.41,0,1,1,0,4.81Z"/>
          <path class="cls-7" d="M241.4,104.62H231.25c-.81,0-2.34,0-2.93-1a.71.71,0,0,0-.4-.36h-.69v-1.25H228a1.78,1.78,0,0,1,1.41,1c.23.37,1.46.37,1.86.37H241.4a1.16,1.16,0,1,0,0-2.31h-3.06V99.81h3.06a2.41,2.41,0,1,1,0,4.81Z"/>
          <path class="cls-8" d="M219.54,64.64l-.82-1a13.85,13.85,0,0,1,1.5-1.11l.67,1.06A11.23,11.23,0,0,0,219.54,64.64Z"/>
          <path class="cls-8" d="M215.43,75.79a9.7,9.7,0,0,1-.7-2.89,10.63,10.63,0,0,1,3-8.21l.91.85A9.4,9.4,0,0,0,216,72.79a8.85,8.85,0,0,0,.62,2.53Z"/>
          <path class="cls-7" d="M224.82,84.23a1.27,1.27,0,0,1-.34,0,1.11,1.11,0,0,1-.76-1L223.43,80a8.84,8.84,0,0,1-6.21-7.31c-.43-4.88,3.89-9.26,9.64-9.76s10.78,3,11.21,7.92-3.89,9.25-9.64,9.76h-.07l-2.7,3.22A1.11,1.11,0,0,1,224.82,84.23ZM228,64.12c-.32,0-.65,0-1,0-5.06.45-8.88,4.22-8.51,8.41a7.7,7.7,0,0,0,5.74,6.36l.4.13.33,3.7,2.83-3.38h.56c5.06-.45,8.88-4.22,8.51-8.41C236.48,67,232.59,64.12,228,64.12Z"/>
          <path class="cls-7" d="M234.84,71.12c-.25-2.81-3.28-5-6.89-5v-.93c4.1,0,7.53,2.57,7.82,5.86Z"/>
          <polygon class="cls-7" points="227.86 104.76 221.79 104.76 221.79 103.51 226.61 103.51 226.61 87.98 223.04 87.98 223.04 86.73 227.86 86.73 227.86 104.76"/>
          <rect class="cls-22" x="223.35" y="100.96" width="1.66" height="1.25"/>
          <rect class="cls-22" x="220.18" y="100.96" width="1.66" height="1.25"/>
        </g>
        <g>
          <rect class="cls-8" x="34.19" y="211.79" width="6.16" height="1.26"/>
          <path class="cls-8" d="M52.09,188.16a14.5,14.5,0,0,0-.64-1.58l1.13-.54a15,15,0,0,1,.7,1.71Z"/>
          <path class="cls-8" d="M50.79,185.34a15.94,15.94,0,0,0-5.69-5.7l.64-1.09a17.26,17.26,0,0,1,6.14,6.16Z"/>
          <path class="cls-7" d="M37.07,208a14.56,14.56,0,0,1-10.34-4.28h0A14.63,14.63,0,1,1,37.07,208Zm0-28a13.36,13.36,0,0,0-9.45,22.81h0A13.36,13.36,0,1,0,37.07,180Z"/>
          <path class="cls-25" d="M37.07,205.29a12,12,0,0,1-11.95-11.94,12,12,0,0,1,12-11.95v1.26a10.69,10.69,0,1,0,10.69,10.69H49A12,12,0,0,1,37.07,205.29Z"/>
          <path class="cls-25" d="M37.3,197.35l0-1.26a3.07,3.07,0,0,0,.53-.07,2.68,2.68,0,1,0-3.31-2.51l-1.26.05a3.94,3.94,0,1,1,4.87,3.68A4.18,4.18,0,0,1,37.3,197.35Z"/>
          <path class="cls-8" d="M33.85,201.65a9,9,0,0,1-5.52-6.73l1.24-.23a7.74,7.74,0,0,0,4.74,5.78Z"/>
          <path class="cls-8" d="M44.67,191.57a7.68,7.68,0,0,0-4.82-5.49l.44-1.18a8.93,8.93,0,0,1,5.6,6.38Z"/>
          <path class="cls-7" d="M39.67,210.56h-5.2v-3.85h5.2Zm-3.94-1.26h2.68V208H35.73Z"/>
          <rect class="cls-8" x="30.9" y="209.93" width="1.26" height="3.91"/>
          <rect class="cls-8" x="30.9" y="214.87" width="1.26" height="1.53"/>
          <rect class="cls-8" x="42.05" y="211.12" width="1.26" height="1.53"/>
          <path class="cls-7" d="M41,218.38H33.42V209.3H41Zm-6.3-1.26h5v-6.56h-5Z"/>
          <g>
            <path class="cls-8" d="M18.62,194.27a18.61,18.61,0,0,1,9.67-17.15l.6,1.11a17.34,17.34,0,0,0-9,16Z"/>
            <polygon class="cls-8" points="28.87 179.31 30.64 176.72 27.51 176.48 28.87 179.31"/>
          </g>
          <g>
            <path class="cls-25" d="M49,207.69l-.8-1a17.43,17.43,0,0,0,6.23-14l1.26-.05A18.62,18.62,0,0,1,49,207.69Z"/>
            <polygon class="cls-25" points="47.99 205.65 46.77 208.54 49.89 208.15 47.99 205.65"/>
          </g>
        </g>
        <g>
          <polygon class="cls-7" points="126.18 159.86 124.89 159.86 124.89 142.16 106.18 142.16 106.18 140.87 126.18 140.87 126.18 159.86"/>
          <rect class="cls-7" x="124.89" y="161.42" width="1.29" height="1.56"/>
          <polygon class="cls-7" points="125.53 170.2 103.11 170.2 103.11 166.31 104.4 166.31 104.4 168.9 125.53 168.9 125.53 170.2"/>
          <rect class="cls-26" x="114.64" y="144.74" width="8.41" height="21.57"/>
          <rect class="cls-27" x="108.44" y="147.82" width="3.99" height="1.03"/>
          <rect class="cls-27" x="108.44" y="144.94" width="3.99" height="1.03"/>
          <rect class="cls-27" x="108.44" y="153.58" width="3.99" height="1.03"/>
          <rect class="cls-27" x="108.44" y="150.7" width="3.99" height="1.03"/>
          <rect class="cls-27" x="108.44" y="159.35" width="3.99" height="1.03"/>
          <rect class="cls-27" x="108.44" y="156.47" width="3.99" height="1.03"/>
          <rect class="cls-27" x="108.44" y="165.44" width="3.99" height="1.03"/>
          <rect class="cls-27" x="108.44" y="162.46" width="3.99" height="1.03"/>
          <rect class="cls-24" x="86.93" y="144.74" width="16.82" height="8.84"/>
          <rect class="cls-27" x="86.88" y="141.21" width="16.87" height="1.29"/>
          <rect class="cls-27" x="86.88" y="158.83" width="16.87" height="1.29"/>
          <rect class="cls-27" x="86.88" y="161.81" width="16.87" height="1.29"/>
          <rect class="cls-27" x="86.88" y="155.85" width="16.87" height="1.29"/>
          <polygon class="cls-7" points="106.88 177.06 91.86 177.06 91.86 165.66 105.58 165.66 105.58 138.62 85.1 138.62 85.1 165.66 88.33 165.66 88.33 166.96 83.8 166.96 83.8 137.33 106.88 137.33 106.88 166.96 93.16 166.96 93.16 175.76 105.58 175.76 105.58 169.55 106.88 169.55 106.88 177.06"/>
          <rect class="cls-28" x="94.43" y="167.89" width="6.07" height="6.07"/>
          <rect class="cls-27" x="101.54" y="171.36" width="2.7" height="1.29"/>
          <rect class="cls-27" x="101.54" y="173.32" width="2.7" height="1.29"/>
          <rect class="cls-27" x="97.04" y="134.74" width="1.33" height="1.29"/>
          <rect class="cls-27" x="99.35" y="134.74" width="1.33" height="1.29"/>
          <rect class="cls-27" x="108.46" y="172.1" width="1.33" height="1.29"/>
          <rect class="cls-27" x="111.12" y="172.1" width="7.8" height="1.29"/>
          <rect class="cls-27" x="79.33" y="141.88" width="1.29" height="1.33"/>
          <rect class="cls-7" x="81.22" y="144.81" width="1.29" height="1.33"/>
          <rect class="cls-7" x="81.22" y="147.69" width="1.29" height="1.33"/>
          <polygon class="cls-27" points="82.51 140.68 81.22 140.68 81.22 134.74 95.99 134.74 95.99 136.03 82.51 136.03 82.51 140.68"/>
        </g>
      </g>
      <g>
        <path class="cls-8" d="M354,90a1.43,1.43,0,0,1-.75-.2L320.73,71a1.5,1.5,0,0,1,1.5-2.6l32.55,18.79A1.5,1.5,0,0,1,354,90Z"/>
        <path class="cls-8" d="M287.21,127.86a1.56,1.56,0,0,1-.75-.2l-32.54-18.79a1.5,1.5,0,1,1,1.5-2.6L288,125.06a1.5,1.5,0,0,1-.75,2.8Z"/>
        <path class="cls-8" d="M225.53,164.48a1.46,1.46,0,0,1-.75-.2l-32.54-18.79a1.5,1.5,0,0,1,1.5-2.6l32.54,18.79a1.5,1.5,0,0,1-.75,2.8Z"/>
        <path class="cls-8" d="M162.56,201.1a1.42,1.42,0,0,1-.74-.2l-32.55-18.79a1.5,1.5,0,1,1,1.5-2.6l32.55,18.79a1.5,1.5,0,0,1-.76,2.8Z"/>
        <path class="cls-8" d="M93.82,240.29a1.46,1.46,0,0,1-.75-.2L60.53,221.3a1.5,1.5,0,1,1,1.5-2.59l32.54,18.78a1.5,1.5,0,0,1-.75,2.8Z"/>
      </g>
    </g>
    <g>
      <path class="cls-29" d="M263.7,16.2v2.86h-2.12V11.21h2.58c2.13,0,3.2.77,3.2,2.32A2.32,2.32,0,0,1,266,15.64l2.29,3.42h-2.4l-1.67-2.86Zm0-1.59h.4c.74,0,1.11-.33,1.11-1s-.36-.82-1.09-.82h-.42Z"/>
      <path class="cls-29" d="M271.84,19.17a3.27,3.27,0,0,1-2.36-.81,3.05,3.05,0,0,1-.84-2.3,3.32,3.32,0,0,1,.78-2.37,2.91,2.91,0,0,1,2.22-.82,3,3,0,0,1,2.13.72,2.7,2.7,0,0,1,.75,2.06v.93h-3.76a1.06,1.06,0,0,0,.38.81,1.46,1.46,0,0,0,.95.29,4.62,4.62,0,0,0,1-.11,5,5,0,0,0,1-.36v1.51a3.53,3.53,0,0,1-1,.35A6.56,6.56,0,0,1,271.84,19.17Zm-.12-4.87a.84.84,0,0,0-.62.23,1.1,1.1,0,0,0-.3.73h1.81a1.06,1.06,0,0,0-.25-.7A.8.8,0,0,0,271.72,14.3Z"/>
      <path class="cls-29" d="M279.42,14.55h-1.29v4.51H276V14.55h-.81v-1l.85-.52v-.1a2.48,2.48,0,0,1,.49-1.73,2.08,2.08,0,0,1,1.58-.53,4.94,4.94,0,0,1,.79.07,6.93,6.93,0,0,1,.87.22l-.46,1.36a2.82,2.82,0,0,0-.75-.1.42.42,0,0,0-.35.14.77.77,0,0,0-.11.48V13h1.29Z"/>
      <path class="cls-29" d="M283.19,19.17a3.28,3.28,0,0,1-2.37-.81,3.05,3.05,0,0,1-.84-2.3,3.32,3.32,0,0,1,.78-2.37,3.46,3.46,0,0,1,4.35-.1,2.7,2.7,0,0,1,.75,2.06v.93h-3.75a1,1,0,0,0,.37.81,1.47,1.47,0,0,0,1,.29,4.62,4.62,0,0,0,1-.11,4.88,4.88,0,0,0,1-.36v1.51a3.53,3.53,0,0,1-1,.35A6.52,6.52,0,0,1,283.19,19.17Zm-.13-4.87a.85.85,0,0,0-.62.23,1.09,1.09,0,0,0-.29.73H284a1,1,0,0,0-.25-.7A.8.8,0,0,0,283.06,14.3Z"/>
      <path class="cls-29" d="M290.72,12.87a2.89,2.89,0,0,1,.52,0l.12,0-.19,2a3.28,3.28,0,0,0-.71-.06,1.36,1.36,0,0,0-1,.31,1.24,1.24,0,0,0-.31.91v3h-2.1V13h1.56l.33,1h.1a2,2,0,0,1,.73-.78A1.77,1.77,0,0,1,290.72,12.87Z"/>
      <path class="cls-29" d="M295.88,12.87a2.89,2.89,0,0,1,.52,0l.12,0-.19,2a3.28,3.28,0,0,0-.71-.06,1.36,1.36,0,0,0-1,.31,1.24,1.24,0,0,0-.31.91v3h-2.1V13h1.56l.33,1h.1a2.1,2.1,0,0,1,.73-.78A1.77,1.77,0,0,1,295.88,12.87Z"/>
      <path class="cls-29" d="M301.34,19.06l-.4-.8h-.05A2.41,2.41,0,0,1,300,19a3,3,0,0,1-1.14.19,1.76,1.76,0,0,1-1.35-.52,2,2,0,0,1-.5-1.45,1.63,1.63,0,0,1,.68-1.44,3.66,3.66,0,0,1,2-.54l1,0V15.1a.66.66,0,0,0-.74-.75,4.48,4.48,0,0,0-1.69.45l-.61-1.38a5.8,5.8,0,0,1,2.69-.55,2.57,2.57,0,0,1,1.81.58,2.06,2.06,0,0,1,.64,1.62v4Zm-1.56-1.37a.9.9,0,0,0,.65-.25.77.77,0,0,0,.28-.62v-.48l-.49,0c-.69,0-1,.28-1,.77S299.38,17.69,299.78,17.69Z"/>
      <path class="cls-29" d="M306.32,19.06h-2.1V10.7h2.1Z"/>
      <path class="cls-29" d="M312.48,17.19a1.72,1.72,0,0,1-.67,1.48,3.15,3.15,0,0,1-1.91.5,10,10,0,0,1-1.18-.07,5.15,5.15,0,0,1-1-.27V17.15a6.51,6.51,0,0,0,1.08.35,4.08,4.08,0,0,0,1,.14c.46,0,.69-.1.69-.31a.38.38,0,0,0-.19-.29,11.55,11.55,0,0,0-1.11-.49,2.76,2.76,0,0,1-1.17-.78,1.73,1.73,0,0,1-.34-1.11,1.54,1.54,0,0,1,.66-1.32,3.16,3.16,0,0,1,1.85-.47,4.55,4.55,0,0,1,1.13.13,7.58,7.58,0,0,1,1.1.38l-.57,1.36a6.12,6.12,0,0,0-.88-.32,2.92,2.92,0,0,0-.77-.13c-.34,0-.51.08-.51.25a.31.31,0,0,0,.18.26,7.12,7.12,0,0,0,1,.45,4.19,4.19,0,0,1,.95.52,1.53,1.53,0,0,1,.46.59A2.09,2.09,0,0,1,312.48,17.19Z"/>
    </g>
    <g>
      <path class="cls-29" d="M222.3,46.84a2.31,2.31,0,0,1-.38,1.3,2.38,2.38,0,0,1-1.06.88,4,4,0,0,1-1.64.31,6.2,6.2,0,0,1-1.32-.11,4.8,4.8,0,0,1-1.1-.38V47a6.21,6.21,0,0,0,1.26.49,5,5,0,0,0,1.2.17,1.13,1.13,0,0,0,.69-.16.5.5,0,0,0,.22-.42.55.55,0,0,0-.08-.29,1.05,1.05,0,0,0-.29-.24c-.13-.08-.48-.25-1-.51a4.87,4.87,0,0,1-1.16-.67,2.27,2.27,0,0,1-.57-.75,2.6,2.6,0,0,1-.18-1,2,2,0,0,1,.79-1.69,3.45,3.45,0,0,1,2.17-.61,6.08,6.08,0,0,1,2.49.57l-.65,1.63a4.84,4.84,0,0,0-1.91-.5,1.06,1.06,0,0,0-.6.14.47.47,0,0,0-.19.36.52.52,0,0,0,.24.42,9.8,9.8,0,0,0,1.3.66,3.59,3.59,0,0,1,1.41,1A2.16,2.16,0,0,1,222.3,46.84Z"/>
      <path class="cls-29" d="M229.2,46.17a3.21,3.21,0,0,1-.81,2.33,3.37,3.37,0,0,1-4.45,0,3.23,3.23,0,0,1-.82-2.31,3.16,3.16,0,0,1,.81-2.31,3,3,0,0,1,2.25-.83,3.14,3.14,0,0,1,1.58.39,2.48,2.48,0,0,1,1.06,1.09A3.51,3.51,0,0,1,229.2,46.17Zm-3.95,0a2.75,2.75,0,0,0,.21,1.2.74.74,0,0,0,.71.41.72.72,0,0,0,.69-.41,2.92,2.92,0,0,0,.2-1.2,2.7,2.7,0,0,0-.2-1.17.72.72,0,0,0-.7-.4.73.73,0,0,0-.7.39A2.62,2.62,0,0,0,225.25,46.17Z"/>
      <path class="cls-29" d="M233.17,49.33a3,3,0,0,1-2.27-.8,3.25,3.25,0,0,1-.77-2.32,3.17,3.17,0,0,1,.83-2.34,3.2,3.2,0,0,1,2.37-.84,4.46,4.46,0,0,1,2,.47l-.62,1.55c-.26-.11-.49-.2-.71-.27a2.41,2.41,0,0,0-.67-.1.93.93,0,0,0-.79.4,2,2,0,0,0-.28,1.12c0,1,.36,1.46,1.08,1.46a3.27,3.27,0,0,0,1.78-.53V48.8A3.43,3.43,0,0,1,233.17,49.33Z"/>
      <path class="cls-29" d="M236.28,41.63a.92.92,0,0,1,.26-.71,1.31,1.31,0,0,1,.85-.23,1.28,1.28,0,0,1,.86.24.88.88,0,0,1,.27.7c0,.61-.38.92-1.13.92S236.28,42.24,236.28,41.63Zm2.16,7.6h-2.1V43.14h2.1Z"/>
      <path class="cls-29" d="M243.87,49.23l-.4-.81h0a2.52,2.52,0,0,1-.87.72,2.82,2.82,0,0,1-1.14.19,1.79,1.79,0,0,1-1.35-.51,2,2,0,0,1-.5-1.45,1.66,1.66,0,0,1,.68-1.45,3.69,3.69,0,0,1,2-.53l1,0v-.08a.66.66,0,0,0-.74-.75,4.48,4.48,0,0,0-1.7.45l-.6-1.39a5.89,5.89,0,0,1,2.68-.55,2.62,2.62,0,0,1,1.81.58,2.09,2.09,0,0,1,.65,1.63v4Zm-1.56-1.38a1,1,0,0,0,.66-.24.8.8,0,0,0,.27-.63v-.47l-.49,0c-.69,0-1,.28-1,.76S241.92,47.85,242.31,47.85Z"/>
      <path class="cls-29" d="M248.86,49.23h-2.1V40.87h2.1Z"/>
    </g>
    <g>
      <path class="cls-29" d="M166.74,83.73h-4.66V75.88h4.66v1.7H164.2v1.23h2.35v1.71H164.2V82h2.54Z"/>
      <path class="cls-29" d="M175.46,83.73V80.42a1.93,1.93,0,0,0-.17-.93.57.57,0,0,0-.53-.31.75.75,0,0,0-.71.42,2.77,2.77,0,0,0-.23,1.29v2.84h-2.1V80.42a2.07,2.07,0,0,0-.16-.93.56.56,0,0,0-.52-.31.76.76,0,0,0-.72.44,3.4,3.4,0,0,0-.23,1.44v2.67H168V77.64h1.59l.26.75H170a1.67,1.67,0,0,1,.7-.64,2.52,2.52,0,0,1,1.05-.21,2.06,2.06,0,0,1,1.85.79h.16a1.67,1.67,0,0,1,.72-.58,2.4,2.4,0,0,1,1-.21,2.1,2.1,0,0,1,1.6.55,2.41,2.41,0,0,1,.51,1.68v4Z"/>
      <path class="cls-29" d="M183,83.73l-.4-.81h0a2.52,2.52,0,0,1-.87.72,2.82,2.82,0,0,1-1.14.19,1.79,1.79,0,0,1-1.35-.51,2,2,0,0,1-.5-1.45,1.66,1.66,0,0,1,.68-1.45,3.69,3.69,0,0,1,2-.53l1,0v-.09a.66.66,0,0,0-.74-.75,4.48,4.48,0,0,0-1.7.45l-.6-1.39a5.89,5.89,0,0,1,2.68-.54,2.57,2.57,0,0,1,1.81.58,2.05,2.05,0,0,1,.65,1.62v4Zm-1.56-1.38a1,1,0,0,0,.66-.24.8.8,0,0,0,.27-.63V81l-.49,0c-.69,0-1,.28-1,.76S181,82.35,181.4,82.35Z"/>
      <path class="cls-29" d="M185.8,76.13a.89.89,0,0,1,.27-.71,1.26,1.26,0,0,1,.84-.23,1.28,1.28,0,0,1,.86.24.88.88,0,0,1,.27.7c0,.61-.38.92-1.13.92S185.8,76.74,185.8,76.13Zm2.16,7.6h-2.1V77.64H188Z"/>
      <path class="cls-29" d="M191.52,83.73h-2.1V75.37h2.1Z"/>
    </g>
    <g>
      <path class="cls-29" d="M111,121.31l-.38-1.47h-2.55l-.4,1.47h-2.33l2.56-7.88h2.83l2.59,7.88Zm-.82-3.21-.34-1.29c-.08-.29-.18-.66-.29-1.11s-.19-.78-.22-1c0,.18-.1.48-.19.9s-.31,1.25-.63,2.48Z"/>
      <path class="cls-29" d="M115.93,121.42a1.9,1.9,0,0,1-1.14-.37A2.41,2.41,0,0,1,114,120a4.78,4.78,0,0,1-.26-1.68,3.9,3.9,0,0,1,.59-2.32,2,2,0,0,1,2.53-.64,2.1,2.1,0,0,1,.71.69h0a9.82,9.82,0,0,1-.1-1.43V113h2.11v8.36h-1.58l-.45-.77h-.08A1.78,1.78,0,0,1,115.93,121.42Zm.86-1.66a.78.78,0,0,0,.71-.32,1.89,1.89,0,0,0,.22-1v-.16a2.09,2.09,0,0,0-.23-1.15.79.79,0,0,0-.72-.34.7.7,0,0,0-.64.39,2.14,2.14,0,0,0-.23,1.11,2,2,0,0,0,.23,1.08A.72.72,0,0,0,116.79,119.76Z"/>
      <path class="cls-29" d="M125.81,119.44a1.74,1.74,0,0,1-.66,1.48,3.2,3.2,0,0,1-1.92.5,9.68,9.68,0,0,1-1.17-.07,5,5,0,0,1-1-.27V119.4a6.1,6.1,0,0,0,1.07.35,4.15,4.15,0,0,0,1,.14c.45,0,.68-.1.68-.31a.35.35,0,0,0-.19-.29,11.55,11.55,0,0,0-1.11-.49,2.76,2.76,0,0,1-1.17-.78,1.79,1.79,0,0,1-.33-1.11,1.56,1.56,0,0,1,.65-1.32,3.19,3.19,0,0,1,1.86-.47,4.6,4.6,0,0,1,1.13.13,7.9,7.9,0,0,1,1.09.38l-.57,1.36a5.71,5.71,0,0,0-.88-.32,2.86,2.86,0,0,0-.76-.13c-.35,0-.52.08-.52.25a.31.31,0,0,0,.18.26,7.72,7.72,0,0,0,1,.45,4,4,0,0,1,1,.52,1.56,1.56,0,0,1,.47.59A2.29,2.29,0,0,1,125.81,119.44Z"/>
    </g>
    <g>
      <path class="cls-29" d="M25.11,160.76a2.38,2.38,0,0,1-.37,1.3,2.54,2.54,0,0,1-1.07.88,4,4,0,0,1-1.64.31,7,7,0,0,1-1.32-.11,4.8,4.8,0,0,1-1.1-.38v-1.89a6.18,6.18,0,0,0,1.26.48,4.6,4.6,0,0,0,1.2.18,1.18,1.18,0,0,0,.7-.17.52.52,0,0,0,.22-.42.45.45,0,0,0-.09-.28,1.05,1.05,0,0,0-.29-.24,11.11,11.11,0,0,0-1-.51,4.75,4.75,0,0,1-1.15-.68,2,2,0,0,1-.57-.75,2.38,2.38,0,0,1-.19-1,2,2,0,0,1,.79-1.69,3.45,3.45,0,0,1,2.17-.61,6.22,6.22,0,0,1,2.49.56l-.65,1.64a4.67,4.67,0,0,0-1.9-.5A1,1,0,0,0,22,157a.45.45,0,0,0-.18.36.5.5,0,0,0,.24.41,7.58,7.58,0,0,0,1.29.67,3.49,3.49,0,0,1,1.41,1A2.09,2.09,0,0,1,25.11,160.76Z"/>
      <path class="cls-29" d="M29.14,163.25a3.28,3.28,0,0,1-2.37-.81,3,3,0,0,1-.84-2.3,3.29,3.29,0,0,1,.78-2.36,2.92,2.92,0,0,1,2.23-.83,2.94,2.94,0,0,1,2.12.72,2.71,2.71,0,0,1,.75,2.06v.94H28.06a1,1,0,0,0,.37.8,1.47,1.47,0,0,0,1,.29,4.62,4.62,0,0,0,1-.11,5.46,5.46,0,0,0,1-.35v1.51a4.25,4.25,0,0,1-1,.35A7.54,7.54,0,0,1,29.14,163.25ZM29,158.38a.9.9,0,0,0-.62.23,1.15,1.15,0,0,0-.29.74h1.8a1,1,0,0,0-.25-.71A.84.84,0,0,0,29,158.38Z"/>
      <path class="cls-29" d="M37,163.14l-.41-.8h0a2.41,2.41,0,0,1-.86.72,2.89,2.89,0,0,1-1.14.19,1.8,1.8,0,0,1-1.36-.51,2,2,0,0,1-.49-1.45,1.66,1.66,0,0,1,.68-1.45,3.66,3.66,0,0,1,2-.54l1,0v-.08a.66.66,0,0,0-.74-.76,4.43,4.43,0,0,0-1.69.45l-.61-1.38A5.8,5.8,0,0,1,36,157a2.59,2.59,0,0,1,1.81.58,2.07,2.07,0,0,1,.64,1.62v4Zm-1.56-1.37a1,1,0,0,0,.65-.24.8.8,0,0,0,.27-.63v-.47l-.48,0c-.69,0-1,.28-1,.76S35,161.77,35.41,161.77Z"/>
      <path class="cls-29" d="M43.52,157a4.39,4.39,0,0,1,.53,0l.11,0L44,159a3.28,3.28,0,0,0-.72-.07,1.36,1.36,0,0,0-1,.32,1.22,1.22,0,0,0-.31.9v3h-2.1v-6.08h1.56l.33,1h.1a2.13,2.13,0,0,1,.74-.78A1.74,1.74,0,0,1,43.52,157Z"/>
      <path class="cls-29" d="M47.78,163.25a3,3,0,0,1-2.26-.8,3.25,3.25,0,0,1-.77-2.32,3.21,3.21,0,0,1,.83-2.35A3.24,3.24,0,0,1,48,157a4.51,4.51,0,0,1,2,.46L49.33,159a5.9,5.9,0,0,0-.71-.27,2.13,2.13,0,0,0-.67-.1.9.9,0,0,0-.79.4,1.89,1.89,0,0,0-.28,1.12c0,1,.36,1.46,1.08,1.46a3.22,3.22,0,0,0,1.77-.54v1.67A3.43,3.43,0,0,1,47.78,163.25Z"/>
      <path class="cls-29" d="M54.77,163.14v-3.31q0-1.23-.72-1.23a.8.8,0,0,0-.76.43,3,3,0,0,0-.25,1.44v2.67h-2.1v-8.35H53V156c0,.54,0,1.15-.08,1.84h.09a1.76,1.76,0,0,1,.72-.67,2.35,2.35,0,0,1,1-.19,2.12,2.12,0,0,1,1.59.59,2.3,2.3,0,0,1,.56,1.65v3.95Z"/>
    </g>
    <circle class="cls-7" cx="601.8" cy="184.35" r="61.68"/>
    <g id="Circle_logo_WH" data-name="Circle logo WH">
      <g>
        <path class="cls-5" d="M657.65,184.35a55.34,55.34,0,1,0-60.32,55.1h.14l1.39.11h.27c.42,0,.85,0,1.27.06l.34,0,1.58,0,1.49,0H604l1.32-.05h.08c1-.05,2-.14,2.93-.24h0A55.41,55.41,0,0,0,657.65,184.35Zm-49.48,49.72-.54-15.31L621,210.57A10.07,10.07,0,0,0,636.77,202a10.08,10.08,0,0,0-20.16.3,10.44,10.44,0,0,0,.14,1.59l-9.43,5.83-.67-19.27,13.15-8a11.86,11.86,0,1,0-4.4-6.65l-9.07,5.61-.53-15.39a10.77,10.77,0,0,0,6.88-10.5A10.77,10.77,0,1,0,598,165.94l-1,31.89-9.86-6.28a11.73,11.73,0,0,0-.88-8,12.7,12.7,0,0,0-10.48-7.29,12.49,12.49,0,1,0,7.2,22.05L596.78,207,596,234a50.08,50.08,0,1,1,12.22.06Z"/>
        <g>
          <path class="cls-6" d="M601.91,149.37a6.54,6.54,0,1,0,6.54,6.53A6.54,6.54,0,0,0,601.91,149.37Z"/>
          <path class="cls-6" d="M626.55,196.47a5.94,5.94,0,1,0,5.93,5.93A5.95,5.95,0,0,0,626.55,196.47Z"/>
          <path class="cls-6" d="M630.21,179.25a7,7,0,1,0-9.34-3.22A7,7,0,0,0,630.21,179.25Z"/>
          <path class="cls-6" d="M575.05,181.19a7.54,7.54,0,1,0,7.53,7.54A7.55,7.55,0,0,0,575.05,181.19Z"/>
        </g>
      </g>
    </g>
    <g>
      <path class="cls-8" d="M545.65,134.92a1.52,1.52,0,0,1-1-.36,1.49,1.49,0,0,1-.16-2.11,75.3,75.3,0,0,1,104-10.2,1.5,1.5,0,1,1-1.86,2.35,72.31,72.31,0,0,0-99.85,9.8A1.52,1.52,0,0,1,545.65,134.92Z"/>
      <polygon class="cls-8" points="642.26 126.84 654 129.15 650.12 117.83 642.26 126.84"/>
    </g>
    <g>
      <path class="cls-8" d="M601.8,262.83a75.26,75.26,0,0,1-57.29-26.42,1.5,1.5,0,0,1,2.28-1.95,72.34,72.34,0,0,0,99.85,9.8,1.5,1.5,0,1,1,1.86,2.35A74.55,74.55,0,0,1,601.8,262.83Z"/>
      <polygon class="cls-8" points="650.12 251.03 654 239.71 642.26 242.01 650.12 251.03"/>
    </g>
    <circle class="cls-30" cx="601.8" cy="184.35" r="61.68"/>
    <g>
      <circle class="cls-31" cx="330.25" cy="75" r="4.72"/>
      <path class="cls-5" d="M330.25,80.31A5.31,5.31,0,1,1,335.56,75,5.31,5.31,0,0,1,330.25,80.31Zm0-9.44A4.13,4.13,0,1,0,334.38,75,4.13,4.13,0,0,0,330.25,70.87Z"/>
    </g>
    <g>
      <circle class="cls-31" cx="278.5" cy="121.5" r="4.72"/>
      <path class="cls-5" d="M278.5,126.81a5.31,5.31,0,1,1,5.31-5.31A5.31,5.31,0,0,1,278.5,126.81Zm0-9.44a4.13,4.13,0,1,0,4.13,4.13A4.13,4.13,0,0,0,278.5,117.37Z"/>
    </g>
    <g>
      <circle class="cls-31" cx="161.5" cy="199.5" r="4.72"/>
      <path class="cls-5" d="M161.5,204.81a5.31,5.31,0,1,1,5.31-5.31A5.31,5.31,0,0,1,161.5,204.81Zm0-9.44a4.13,4.13,0,1,0,4.13,4.13A4.13,4.13,0,0,0,161.5,195.37Z"/>
    </g>
    <g>
      <circle class="cls-31" cx="559" cy="122" r="4.72"/>
      <path class="cls-5" d="M559,127.31a5.31,5.31,0,1,1,5.31-5.31A5.31,5.31,0,0,1,559,127.31Zm0-9.44a4.13,4.13,0,1,0,4.13,4.13A4.13,4.13,0,0,0,559,117.87Z"/>
    </g>
    <g>
      <circle class="cls-31" cx="620.5" cy="259" r="4.72"/>
      <path class="cls-5" d="M620.5,264.31a5.31,5.31,0,1,1,5.31-5.31A5.31,5.31,0,0,1,620.5,264.31Zm0-9.44a4.13,4.13,0,1,0,4.13,4.13A4.13,4.13,0,0,0,620.5,254.87Z"/>
    </g>
  </g>
</svg>
